#VRML V2.0 utf8
# 3D model generated by easyeda2kicad.py (https://github.com/uPesy/easyeda2kicad.py)

Shape{
    appearance Appearance {
        material  Material 	{
            diffuseColor 1.0 1.0 1.0
            specularColor 0.7529411764705882 0.7529411764705882 0.7529411764705882
            ambientIntensity 1.0
            transparency 1.0
            shininess 0.5
        }
    }
    geometry IndexedFaceSet {
        ccw TRUE
        solid FALSE
        coord DEF co Coordinate {
            point [
                -2.067 -0.9843 1.219, -2.067 -0.9843 0.2852, -1.8701 -0.9843 0.2852, -1.8701 -0.9843 1.219, -2.067 -0.9583 1.3315, -1.8701 -0.9583 1.3315, -1.8701 -0.9272 1.3806, -1.8701 -0.8858 1.4214, -2.067 -0.9272 1.3806, -2.067 -0.8858 1.4214, -2.067 -0.9777 1.2767, -1.8701 -0.9777 1.2767, -1.8701 1.0131 1.4764, -1.8701 -0.4134 1.4764, -1.8701 -0.4134 1.2795, -1.8701 1.0131 1.2795, -1.8701 -0.991 0.2514, -1.8701 -0.8256 0.1426, -1.8701 -0.7971 0.2114, -1.8701 -0.7874 0.2852, -1.8701 -0.93 0.0382, -1.8701 -0.8709 0.0835, -1.8701 -0.8858 1.0236, -1.8701 -0.7874 1.0236, -1.8701 -0.9988 0.0097, -1.8701 -1.0101 0.2227, -1.8701 -1.0388 0.2036, -1.8701 -1.0726 0.0, -1.8701 -1.0726 0.1969, -1.8701 -1.752 0.0, -1.8701 -1.752 0.1969, -1.9095 1.1312 1.3189, -1.9095 1.1312 1.437, -2.0276 1.1312 1.437, -2.067 1.0131 1.4764, -2.067 -0.4134 1.4764, -2.067 1.0131 1.2795, -2.067 -0.4134 1.2795, -2.067 -1.0388 0.2036, -2.067 -1.0101 0.2227, -2.067 -0.9988 0.0097, -2.067 -0.8858 1.0236, -2.067 -0.8709 0.0835, -2.067 -0.93 0.0382, -2.067 -0.991 0.2514, -2.067 -0.7971 0.2114, -2.067 -0.8256 0.1426, -2.067 -0.7874 0.2852, -2.067 -0.7874 1.0236, -2.067 -1.0726 0.0, -2.067 -1.0726 0.1969, -2.067 -1.752 0.1969, -2.067 -1.752 0.0, -2.0276 1.1312 1.3189, -2.0276 -1.8701 0.0394, -2.0276 -1.8701 0.1575, -1.9095 -1.8701 0.1575, -1.9095 -1.8701 0.0394, -1.2796 1.0131 1.2795, -1.2796 -0.4134 1.2795, -1.2796 -0.4134 1.4764, -1.2796 1.0131 1.4764, -1.2796 -1.0388 0.2036, -1.2796 -1.0101 0.2227, -1.2796 -0.9988 0.0097, -1.2796 -0.9583 1.3315, -1.2796 -0.9272 1.3806, -1.2796 -0.8858 1.0236, -1.2796 -0.8709 0.0835, -1.2796 -0.93 0.0382, -1.2796 -0.991 0.2514, -1.2796 -0.9843 0.2852, -1.2796 -0.7971 0.2114, -1.2796 -0.8256 0.1426, -1.2796 -0.7874 0.2852, -1.2796 -0.9777 1.2767, -1.2796 -0.9843 1.219, -1.2796 -0.8858 1.4214, -1.2796 -0.7874 1.0236, -1.2796 -1.0726 0.0, -1.2796 -1.0726 0.1969, -1.2796 -1.752 0.1969, -1.2796 -1.752 0.0, -1.2402 1.1312 1.437, -1.2402 1.1312 1.3189, -1.1221 1.1312 1.437, -1.1221 1.1312 1.3189, -1.0827 1.0131 1.4764, -1.0827 1.0131 1.2795, -1.0827 -0.4134 1.4764, -1.0827 -0.4134 1.2795, -1.0827 -0.991 0.2514, -1.0827 -0.8256 0.1426, -1.0827 -0.9843 0.2852, -1.0827 -0.7971 0.2114, -1.0827 -0.7874 0.2852, -1.0827 -0.93 0.0382, -1.0827 -0.8709 0.0835, -1.0827 -0.8858 1.0236, -1.0827 -0.7874 1.0236, -1.0827 -0.9843 1.219, -1.0827 -0.8858 1.4214, -1.0827 -0.9272 1.3806, -1.0827 -0.9583 1.3315, -1.0827 -0.9777 1.2767, -1.0827 -0.9988 0.0097, -1.0827 -1.0101 0.2227, -1.0827 -1.0388 0.2036, -1.0827 -1.0726 0.0, -1.0827 -1.0726 0.1969, -1.0827 -1.752 0.0, -1.0827 -1.752 0.1969, -1.1221 -1.8701 0.1575, -1.1221 -1.8701 0.0394, -1.2402 -1.8701 0.0394, -1.2402 -1.8701 0.1575, -0.4922 1.0131 1.2795, -0.4922 -0.4134 1.2795, -0.4922 -0.4134 1.4764, -0.4922 1.0131 1.4764, -0.4922 -1.0388 0.2036, -0.4922 -1.0101 0.2227, -0.4922 -0.9988 0.0097, -0.4922 -0.9583 1.3315, -0.4922 -0.9272 1.3806, -0.4922 -0.8858 1.0236, -0.4922 -0.8709 0.0835, -0.4922 -0.93 0.0382, -0.4922 -0.991 0.2514, -0.4922 -0.9843 0.2852, -0.4922 -0.7971 0.2114, -0.4922 -0.8256 0.1426, -0.4922 -0.7874 0.2852, -0.4922 -0.9777 1.2767, -0.4922 -0.9843 1.219, -0.4922 -0.8858 1.4214, -0.4922 -0.7874 1.0236, -0.4922 -1.0726 0.0, -0.4922 -1.0726 0.1969, -0.4922 -1.752 0.1969, -0.4922 -1.752 0.0, -0.4528 1.1312 1.437, -0.4528 1.1312 1.3189, -0.3347 1.1312 1.437, -0.3347 1.1312 1.3189, -0.2953 1.0131 1.4764, -0.2953 1.0131 1.2795, -0.2953 -0.4134 1.4764, -0.2953 -0.4134 1.2795, -0.2953 -0.991 0.2514, -0.2953 -0.8256 0.1426, -0.2953 -0.9843 0.2852, -0.2953 -0.7971 0.2114, -0.2953 -0.7874 0.2852, -0.2953 -0.93 0.0382, -0.2953 -0.8709 0.0835, -0.2953 -0.8858 1.0236, -0.2953 -0.7874 1.0236, -0.2953 -0.9843 1.219, -0.2953 -0.8858 1.4214, -0.2953 -0.9272 1.3806, -0.2953 -0.9583 1.3315, -0.2953 -0.9777 1.2767, -0.2953 -0.9988 0.0097, -0.2953 -1.0101 0.2227, -0.2953 -1.0388 0.2036, -0.2953 -1.0726 0.0, -0.2953 -1.0726 0.1969, -0.2953 -1.752 0.0, -0.2953 -1.752 0.1969, -0.3347 -1.8701 0.1575, -0.3347 -1.8701 0.0394, -0.4528 -1.8701 0.0394, -0.4528 -1.8701 0.1575, 0.2952 1.0131 1.2795, 0.2952 -0.4134 1.2795, 0.2952 -0.4134 1.4764, 0.2952 1.0131 1.4764, 0.2952 -1.0388 0.2036, 0.2952 -1.0101 0.2227, 0.2952 -0.9988 0.0097, 0.2952 -0.9583 1.3315, 0.2952 -0.9272 1.3806, 0.2952 -0.8858 1.0236, 0.2952 -0.8709 0.0835, 0.2952 -0.93 0.0382, 0.2952 -0.991 0.2514, 0.2952 -0.9843 0.2852, 0.2952 -0.7971 0.2114, 0.2952 -0.8256 0.1426, 0.2952 -0.7874 0.2852, 0.2952 -0.9777 1.2767, 0.2952 -0.9843 1.219, 0.2952 -0.8858 1.4214, 0.2952 -0.7874 1.0236, 0.2952 -1.0726 0.0, 0.2952 -1.0726 0.1969, 0.2952 -1.752 0.1969, 0.2952 -1.752 0.0, 0.3346 1.1312 1.437, 0.3346 1.1312 1.3189, 0.4527 1.1312 1.437, 0.4527 1.1312 1.3189, 0.4921 1.0131 1.4764, 0.4921 1.0131 1.2795, 0.4921 -0.4134 1.4764, 0.4921 -0.4134 1.2795, 0.4921 -0.991 0.2514, 0.4921 -0.8256 0.1426, 0.4921 -0.9843 0.2852, 0.4921 -0.7971 0.2114, 0.4921 -0.7874 0.2852, 0.4921 -0.93 0.0382, 0.4921 -0.8709 0.0835, 0.4921 -0.8858 1.0236, 0.4921 -0.7874 1.0236, 0.4921 -0.9843 1.219, 0.4921 -0.8858 1.4214, 0.4921 -0.9272 1.3806, 0.4921 -0.9583 1.3315, 0.4921 -0.9777 1.2767, 0.4921 -0.9988 0.0097, 0.4921 -1.0101 0.2227, 0.4921 -1.0388 0.2036, 0.4921 -1.0726 0.0, 0.4921 -1.0726 0.1969, 0.4921 -1.752 0.0, 0.4921 -1.752 0.1969, 0.4527 -1.8701 0.1575, 0.4527 -1.8701 0.0394, 0.3346 -1.8701 0.0394, 0.3346 -1.8701 0.1575, 1.0826 1.0131 1.2795, 1.0826 -0.4134 1.2795, 1.0826 -0.4134 1.4764, 1.0826 1.0131 1.4764, 1.0826 -1.0388 0.2036, 1.0826 -1.0101 0.2227, 1.0826 -0.9988 0.0097, 1.0826 -0.9583 1.3315, 1.0826 -0.9272 1.3806, 1.0826 -0.8858 1.0236, 1.0826 -0.8709 0.0835, 1.0826 -0.93 0.0382, 1.0826 -0.991 0.2514, 1.0826 -0.9843 0.2852, 1.0826 -0.7971 0.2114, 1.0826 -0.8256 0.1426, 1.0826 -0.7874 0.2852, 1.0826 -0.9777 1.2767, 1.0826 -0.9843 1.219, 1.0826 -0.8858 1.4214, 1.0826 -0.7874 1.0236, 1.0826 -1.0726 0.0, 1.0826 -1.0726 0.1969, 1.0826 -1.752 0.1969, 1.0826 -1.752 0.0, 1.122 1.1312 1.437, 1.122 1.1312 1.3189, 1.2401 1.1312 1.437, 1.2401 1.1312 1.3189, 1.2795 1.0131 1.4764, 1.2795 1.0131 1.2795, 1.2795 -0.4134 1.4764, 1.2795 -0.4134 1.2795, 1.2795 -0.991 0.2514, 1.2795 -0.8256 0.1426, 1.2795 -0.9843 0.2852, 1.2795 -0.7971 0.2114, 1.2795 -0.7874 0.2852, 1.2795 -0.93 0.0382, 1.2795 -0.8709 0.0835, 1.2795 -0.8858 1.0236, 1.2795 -0.7874 1.0236, 1.2795 -0.9843 1.219, 1.2795 -0.8858 1.4214, 1.2795 -0.9272 1.3806, 1.2795 -0.9583 1.3315, 1.2795 -0.9777 1.2767, 1.2795 -0.9988 0.0097, 1.2795 -1.0101 0.2227, 1.2795 -1.0388 0.2036, 1.2795 -1.0726 0.0, 1.2795 -1.0726 0.1969, 1.2795 -1.752 0.0, 1.2795 -1.752 0.1969, 1.2401 -1.8701 0.1575, 1.2401 -1.8701 0.0394, 1.122 -1.8701 0.0394, 1.122 -1.8701 0.1575, 1.87 1.0131 1.2795, 1.87 -0.4134 1.2795, 1.87 -0.4134 1.4764, 1.87 1.0131 1.4764, 1.87 -1.0388 0.2036, 1.87 -1.0101 0.2227, 1.87 -0.9988 0.0097, 1.87 -0.9583 1.3315, 1.87 -0.9272 1.3806, 1.87 -0.8858 1.0236, 1.87 -0.8709 0.0835, 1.87 -0.93 0.0382, 1.87 -0.991 0.2514, 1.87 -0.9843 0.2852, 1.87 -0.7971 0.2114, 1.87 -0.8256 0.1426, 1.87 -0.7874 0.2852, 1.87 -0.9777 1.2767, 1.87 -0.9843 1.219, 1.87 -0.8858 1.4214, 1.87 -0.7874 1.0236, 1.87 -1.0726 0.0, 1.87 -1.0726 0.1969, 1.87 -1.752 0.1969, 1.87 -1.752 0.0, 1.9094 1.1312 1.437, 1.9094 1.1312 1.3189, 2.0275 1.1312 1.437, 2.0275 1.1312 1.3189, 2.0669 1.0131 1.4764, 2.0669 1.0131 1.2795, 2.0669 -0.4134 1.4764, 2.0669 -0.4134 1.2795, 2.0669 -0.991 0.2514, 2.0669 -0.8256 0.1426, 2.0669 -0.9843 0.2852, 2.0669 -0.7971 0.2114, 2.0669 -0.7874 0.2852, 2.0669 -0.93 0.0382, 2.0669 -0.8709 0.0835, 2.0669 -0.8858 1.0236, 2.0669 -0.7874 1.0236, 2.0669 -0.9843 1.219, 2.0669 -0.8858 1.4214, 2.0669 -0.9272 1.3806, 2.0669 -0.9583 1.3315, 2.0669 -0.9777 1.2767, 2.0669 -0.9988 0.0097, 2.0669 -1.0101 0.2227, 2.0669 -1.0388 0.2036, 2.0669 -1.0726 0.0, 2.0669 -1.0726 0.1969, 2.0669 -1.752 0.0, 2.0669 -1.752 0.1969, 2.0275 -1.8701 0.1575, 2.0275 -1.8701 0.0394, 1.9094 -1.8701 0.0394, 1.9094 -1.8701 0.1575, -2.9725 0.2685 0.0231, -2.815 0.2685 0.0231, -2.815 0.2515 0.0486, -2.815 0.2455 0.0787, -2.9725 0.2515 0.0486, -2.9725 0.2455 0.0787, -2.9725 0.2941 0.006, -2.815 0.2941 0.006, -2.9725 0.3242 0.0, -2.815 0.3242 0.0, -2.815 0.906 0.0242, -2.815 0.9333 0.0376, -2.815 1.413 0.5472, -2.815 0.9638 0.0376, -2.815 1.4409 0.524, -2.815 1.4178 0.0231, -2.815 1.4349 0.0486, -2.815 1.3621 0.0, -2.815 0.9911 0.0242, -2.815 1.4409 0.0787, -2.815 1.3923 0.006, -2.815 1.0096 0.0, -2.815 1.3976 0.58, -2.815 0.8875 0.0, -2.815 0.2455 0.8809, -2.815 1.3976 0.6162, -2.815 1.3621 0.8809, -2.815 1.413 0.649, -2.815 1.4178 0.8578, -2.815 1.3923 0.8749, -2.815 1.4349 0.8323, -2.815 1.4409 0.8022, -2.815 1.4409 0.6722, -2.9725 1.4178 0.8578, -2.9725 1.4349 0.8323, -2.9725 1.4409 0.8022, -2.9725 1.3923 0.8749, -2.9725 1.3621 0.8809, -2.9725 0.2455 0.8809, -2.9725 1.3976 0.6162, -2.9725 0.9638 0.0376, -2.9725 0.9333 0.0376, -2.9725 1.413 0.5472, -2.9725 1.4409 0.6722, -2.9725 1.413 0.649, -2.9725 1.4409 0.524, -2.9725 1.4178 0.0231, -2.9725 1.3621 0.0, -2.9725 1.4349 0.0486, -2.9725 0.9911 0.0242, -2.9725 1.4409 0.0787, -2.9725 1.3923 0.006, -2.9725 1.0096 0.0, -2.9725 1.3976 0.58, -2.9725 0.906 0.0242, -2.9725 0.8875 0.0, 2.8149 0.2685 0.0231, 2.9724 0.2685 0.0231, 2.9724 0.2515 0.0486, 2.9724 0.2455 0.0787, 2.8149 0.2515 0.0486, 2.8149 0.2455 0.0787, 2.8149 0.2941 0.006, 2.9724 0.2941 0.006, 2.8149 0.3242 0.0, 2.9724 0.3242 0.0, 2.9724 0.906 0.0242, 2.9724 0.9333 0.0376, 2.9724 1.413 0.5472, 2.9724 0.9638 0.0376, 2.9724 1.4409 0.524, 2.9724 1.4178 0.0231, 2.9724 1.4349 0.0486, 2.9724 1.3621 0.0, 2.9724 0.9911 0.0242, 2.9724 1.4409 0.0787, 2.9724 1.3923 0.006, 2.9724 1.0096 0.0, 2.9724 1.3976 0.58, 2.9724 0.8875 0.0, 2.9724 0.2455 0.8809, 2.9724 1.3976 0.6162, 2.9724 1.3621 0.8809, 2.9724 1.413 0.649, 2.9724 1.4178 0.8578, 2.9724 1.3923 0.8749, 2.9724 1.4349 0.8323, 2.9724 1.4409 0.8022, 2.9724 1.4409 0.6722, 2.8149 1.4178 0.8578, 2.8149 1.4349 0.8323, 2.8149 1.4409 0.8022, 2.8149 1.3923 0.8749, 2.8149 1.3621 0.8809, 2.8149 0.2455 0.8809, 2.8149 1.3976 0.6162, 2.8149 0.9638 0.0376, 2.8149 0.9333 0.0376, 2.8149 1.413 0.5472, 2.8149 1.4409 0.6722, 2.8149 1.413 0.649, 2.8149 1.4409 0.524, 2.8149 1.4178 0.0231, 2.8149 1.3621 0.0, 2.8149 1.4349 0.0486, 2.8149 0.9911 0.0242, 2.8149 1.4409 0.0787, 2.8149 1.3923 0.006, 2.8149 1.0096 0.0, 2.8149 1.3976 0.58, 2.8149 0.906 0.0242, 2.8149 0.8875 0.0
            ]
        }
        coordIndex [
            0,1,2,-1,0,2,3,-1,4,5,6,-1,7,8,6,-1,4,6,8,-1,9,8,7,-1,10,5,4,-1,11,10,0,-1,10,11,5,-1,11,0,3,-1,12,13,14,-1,12,14,15,-1,16,17,2,-1,17,18,2,-1,18,19,2,-1,16,20,21,-1,16,21,17,-1,22,19,23,-1,2,22,3,-1,7,6,22,-1,6,5,22,-1,5,11,3,-1,24,25,26,-1,5,3,22,-1,16,25,20,-1,19,22,2,-1,20,25,24,-1,27,26,28,-1,24,26,27,-1,27,28,29,-1,29,28,30,-1,31,32,12,-1,31,12,15,-1,32,33,34,-1,32,34,12,-1,34,35,13,-1,34,13,12,-1,36,37,35,-1,36,35,34,-1,38,39,40,-1,4,8,41,-1,42,43,44,-1,40,39,43,-1,1,45,46,-1,46,44,1,-1,41,47,1,-1,10,4,0,-1,8,9,41,-1,4,41,0,-1,0,41,1,-1,41,48,47,-1,44,46,42,-1,47,45,1,-1,39,44,43,-1,40,49,38,-1,50,49,51,-1,50,38,49,-1,49,52,51,-1,33,36,34,-1,36,33,53,-1,32,31,53,-1,53,33,32,-1,53,15,36,-1,15,53,31,-1,15,14,37,-1,15,37,36,-1,54,55,51,-1,54,51,52,-1,55,30,51,-1,30,55,56,-1,56,54,57,-1,54,56,55,-1,56,57,29,-1,56,29,30,-1,57,54,52,-1,57,52,29,-1,52,27,29,-1,27,52,49,-1,18,47,19,-1,20,42,21,-1,17,46,45,-1,27,40,24,-1,43,24,40,-1,49,40,27,-1,43,42,20,-1,43,20,24,-1,21,46,17,-1,42,46,21,-1,18,45,47,-1,17,45,18,-1,47,23,19,-1,23,47,48,-1,30,50,51,-1,50,30,28,-1,26,25,39,-1,26,38,28,-1,38,26,39,-1,28,38,50,-1,44,39,25,-1,16,1,44,-1,44,25,16,-1,16,2,1,-1,58,59,60,-1,58,60,61,-1,62,63,64,-1,65,66,67,-1,68,69,70,-1,64,63,69,-1,71,72,73,-1,73,70,71,-1,67,74,71,-1,75,65,76,-1,66,77,67,-1,65,67,76,-1,76,67,71,-1,67,78,74,-1,70,73,68,-1,74,72,71,-1,63,70,69,-1,64,79,62,-1,80,79,81,-1,80,62,79,-1,79,82,81,-1,83,58,61,-1,58,83,84,-1,85,86,84,-1,84,83,85,-1,86,85,87,-1,86,87,88,-1,87,89,90,-1,87,90,88,-1,91,92,93,-1,92,94,93,-1,94,95,93,-1,91,96,97,-1,91,97,92,-1,98,95,99,-1,93,98,100,-1,101,102,98,-1,102,103,98,-1,103,104,100,-1,105,106,107,-1,103,100,98,-1,91,106,96,-1,95,98,93,-1,96,106,105,-1,108,107,109,-1,105,107,108,-1,108,109,110,-1,110,109,111,-1,88,90,59,-1,88,59,58,-1,84,88,58,-1,88,84,86,-1,61,60,89,-1,61,89,87,-1,85,83,61,-1,85,61,87,-1,112,113,110,-1,112,110,111,-1,113,114,82,-1,113,82,110,-1,82,108,110,-1,108,82,79,-1,94,74,95,-1,96,68,97,-1,92,73,72,-1,108,64,105,-1,69,105,64,-1,79,64,108,-1,69,68,96,-1,69,96,105,-1,97,73,92,-1,68,73,97,-1,94,72,74,-1,92,72,94,-1,74,99,95,-1,99,74,78,-1,114,115,81,-1,114,81,82,-1,115,111,81,-1,111,115,112,-1,112,114,113,-1,114,112,115,-1,111,80,81,-1,80,111,109,-1,107,106,63,-1,107,62,109,-1,62,107,63,-1,109,62,80,-1,70,63,106,-1,91,71,70,-1,70,106,91,-1,91,93,71,-1,76,71,93,-1,76,93,100,-1,65,103,102,-1,101,66,102,-1,65,102,66,-1,77,66,101,-1,75,103,65,-1,104,75,76,-1,75,104,103,-1,104,76,100,-1,116,117,118,-1,116,118,119,-1,120,121,122,-1,123,124,125,-1,126,127,128,-1,122,121,127,-1,129,130,131,-1,131,128,129,-1,125,132,129,-1,133,123,134,-1,124,135,125,-1,123,125,134,-1,134,125,129,-1,125,136,132,-1,128,131,126,-1,132,130,129,-1,121,128,127,-1,122,137,120,-1,138,137,139,-1,138,120,137,-1,137,140,139,-1,141,116,119,-1,116,141,142,-1,143,144,142,-1,142,141,143,-1,144,143,145,-1,144,145,146,-1,145,147,148,-1,145,148,146,-1,149,150,151,-1,150,152,151,-1,152,153,151,-1,149,154,155,-1,149,155,150,-1,156,153,157,-1,151,156,158,-1,159,160,156,-1,160,161,156,-1,161,162,158,-1,163,164,165,-1,161,158,156,-1,149,164,154,-1,153,156,151,-1,154,164,163,-1,166,165,167,-1,163,165,166,-1,166,167,168,-1,168,167,169,-1,146,148,117,-1,146,117,116,-1,142,146,116,-1,146,142,144,-1,119,118,147,-1,119,147,145,-1,143,141,119,-1,143,119,145,-1,170,171,168,-1,170,168,169,-1,171,172,140,-1,171,140,168,-1,140,166,168,-1,166,140,137,-1,152,132,153,-1,154,126,155,-1,150,131,130,-1,166,122,163,-1,127,163,122,-1,137,122,166,-1,127,126,154,-1,127,154,163,-1,155,131,150,-1,126,131,155,-1,152,130,132,-1,150,130,152,-1,132,157,153,-1,157,132,136,-1,172,173,139,-1,172,139,140,-1,173,169,139,-1,169,173,170,-1,170,172,171,-1,172,170,173,-1,169,138,139,-1,138,169,167,-1,165,164,121,-1,165,120,167,-1,120,165,121,-1,167,120,138,-1,128,121,164,-1,149,129,128,-1,128,164,149,-1,149,151,129,-1,134,129,151,-1,134,151,158,-1,123,161,160,-1,159,124,160,-1,123,160,124,-1,135,124,159,-1,133,161,123,-1,162,133,134,-1,133,162,161,-1,162,134,158,-1,174,175,176,-1,174,176,177,-1,178,179,180,-1,181,182,183,-1,184,185,186,-1,180,179,185,-1,187,188,189,-1,189,186,187,-1,183,190,187,-1,191,181,192,-1,182,193,183,-1,181,183,192,-1,192,183,187,-1,183,194,190,-1,186,189,184,-1,190,188,187,-1,179,186,185,-1,180,195,178,-1,196,195,197,-1,196,178,195,-1,195,198,197,-1,199,174,177,-1,174,199,200,-1,201,202,200,-1,200,199,201,-1,202,201,203,-1,202,203,204,-1,203,205,206,-1,203,206,204,-1,207,208,209,-1,208,210,209,-1,210,211,209,-1,207,212,213,-1,207,213,208,-1,214,211,215,-1,209,214,216,-1,217,218,214,-1,218,219,214,-1,219,220,216,-1,221,222,223,-1,219,216,214,-1,207,222,212,-1,211,214,209,-1,212,222,221,-1,224,223,225,-1,221,223,224,-1,224,225,226,-1,226,225,227,-1,204,206,175,-1,204,175,174,-1,200,204,174,-1,204,200,202,-1,177,176,205,-1,177,205,203,-1,201,199,177,-1,201,177,203,-1,228,229,226,-1,228,226,227,-1,229,230,198,-1,229,198,226,-1,198,224,226,-1,224,198,195,-1,210,190,211,-1,212,184,213,-1,208,189,188,-1,224,180,221,-1,185,221,180,-1,195,180,224,-1,185,184,212,-1,185,212,221,-1,213,189,208,-1,184,189,213,-1,210,188,190,-1,208,188,210,-1,190,215,211,-1,215,190,194,-1,230,231,197,-1,230,197,198,-1,231,227,197,-1,227,231,228,-1,228,230,229,-1,230,228,231,-1,227,196,197,-1,196,227,225,-1,223,222,179,-1,223,178,225,-1,178,223,179,-1,225,178,196,-1,186,179,222,-1,207,187,186,-1,186,222,207,-1,207,209,187,-1,192,187,209,-1,192,209,216,-1,181,219,218,-1,217,182,218,-1,181,218,182,-1,193,182,217,-1,191,219,181,-1,220,191,192,-1,191,220,219,-1,220,192,216,-1,232,233,234,-1,232,234,235,-1,236,237,238,-1,239,240,241,-1,242,243,244,-1,238,237,243,-1,245,246,247,-1,247,244,245,-1,241,248,245,-1,249,239,250,-1,240,251,241,-1,239,241,250,-1,250,241,245,-1,241,252,248,-1,244,247,242,-1,248,246,245,-1,237,244,243,-1,238,253,236,-1,254,253,255,-1,254,236,253,-1,253,256,255,-1,257,232,235,-1,232,257,258,-1,259,260,258,-1,258,257,259,-1,260,259,261,-1,260,261,262,-1,261,263,264,-1,261,264,262,-1,265,266,267,-1,266,268,267,-1,268,269,267,-1,265,270,271,-1,265,271,266,-1,272,269,273,-1,267,272,274,-1,275,276,272,-1,276,277,272,-1,277,278,274,-1,279,280,281,-1,277,274,272,-1,265,280,270,-1,269,272,267,-1,270,280,279,-1,282,281,283,-1,279,281,282,-1,282,283,284,-1,284,283,285,-1,262,264,233,-1,262,233,232,-1,258,262,232,-1,262,258,260,-1,235,234,263,-1,235,263,261,-1,259,257,235,-1,259,235,261,-1,286,287,284,-1,286,284,285,-1,287,288,256,-1,287,256,284,-1,256,282,284,-1,282,256,253,-1,268,248,269,-1,270,242,271,-1,266,247,246,-1,282,238,279,-1,243,279,238,-1,253,238,282,-1,243,242,270,-1,243,270,279,-1,271,247,266,-1,242,247,271,-1,268,246,248,-1,266,246,268,-1,248,273,269,-1,273,248,252,-1,288,289,255,-1,288,255,256,-1,289,285,255,-1,285,289,286,-1,286,288,287,-1,288,286,289,-1,285,254,255,-1,254,285,283,-1,281,280,237,-1,281,236,283,-1,236,281,237,-1,283,236,254,-1,244,237,280,-1,265,245,244,-1,244,280,265,-1,265,267,245,-1,250,245,267,-1,250,267,274,-1,239,277,276,-1,275,240,276,-1,239,276,240,-1,251,240,275,-1,249,277,239,-1,278,249,250,-1,249,278,277,-1,278,250,274,-1,290,291,292,-1,290,292,293,-1,294,295,296,-1,297,298,299,-1,300,301,302,-1,296,295,301,-1,303,304,305,-1,305,302,303,-1,299,306,303,-1,307,297,308,-1,298,309,299,-1,297,299,308,-1,308,299,303,-1,299,310,306,-1,302,305,300,-1,306,304,303,-1,295,302,301,-1,296,311,294,-1,312,311,313,-1,312,294,311,-1,311,314,313,-1,315,290,293,-1,290,315,316,-1,317,318,316,-1,316,315,317,-1,318,317,319,-1,318,319,320,-1,319,321,322,-1,319,322,320,-1,323,324,325,-1,324,326,325,-1,326,327,325,-1,323,328,329,-1,323,329,324,-1,330,327,331,-1,325,330,332,-1,333,334,330,-1,334,335,330,-1,335,336,332,-1,337,338,339,-1,335,332,330,-1,323,338,328,-1,327,330,325,-1,328,338,337,-1,340,339,341,-1,337,339,340,-1,340,341,342,-1,342,341,343,-1,320,322,291,-1,320,291,290,-1,316,320,290,-1,320,316,318,-1,293,292,321,-1,293,321,319,-1,317,315,293,-1,317,293,319,-1,344,345,342,-1,344,342,343,-1,345,346,314,-1,345,314,342,-1,314,340,342,-1,340,314,311,-1,326,306,327,-1,328,300,329,-1,324,305,304,-1,340,296,337,-1,301,337,296,-1,311,296,340,-1,301,300,328,-1,301,328,337,-1,329,305,324,-1,300,305,329,-1,326,304,306,-1,324,304,326,-1,331,327,306,-1,331,306,310,-1,346,347,313,-1,346,313,314,-1,347,343,313,-1,343,347,344,-1,344,346,345,-1,346,344,347,-1,343,312,313,-1,312,343,341,-1,339,338,295,-1,339,294,341,-1,294,339,295,-1,341,294,312,-1,302,295,338,-1,323,303,302,-1,302,338,323,-1,323,325,303,-1,308,303,325,-1,308,325,332,-1,298,333,309,-1,308,336,307,-1,297,335,334,-1,332,336,308,-1,297,307,335,-1,336,335,307,-1,298,334,333,-1,297,334,298,-1,348,349,350,-1,351,352,350,-1,348,350,352,-1,353,352,351,-1,354,349,348,-1,355,354,356,-1,354,355,349,-1,355,356,357,-1,351,358,359,-1,360,361,362,-1,360,359,361,-1,363,364,365,-1,366,367,361,-1,365,367,366,-1,364,367,365,-1,365,368,363,-1,365,366,369,-1,367,362,361,-1,359,360,370,-1,349,357,350,-1,351,350,357,-1,355,357,349,-1,357,358,351,-1,358,357,371,-1,351,359,372,-1,373,372,370,-1,372,359,370,-1,373,374,372,-1,375,374,373,-1,376,377,374,-1,378,374,379,-1,379,374,375,-1,376,374,378,-1,380,379,375,-1,381,376,378,-1,379,382,378,-1,381,378,382,-1,383,382,379,-1,384,376,381,-1,377,384,385,-1,384,377,376,-1,377,385,374,-1,386,372,374,-1,386,374,385,-1,353,372,386,-1,372,353,351,-1,387,386,385,-1,388,389,390,-1,383,391,392,-1,393,388,390,-1,394,395,396,-1,397,388,398,-1,395,397,398,-1,396,395,398,-1,395,394,399,-1,395,400,397,-1,398,388,393,-1,389,401,390,-1,348,352,356,-1,353,356,352,-1,402,403,356,-1,356,353,402,-1,356,354,348,-1,389,402,353,-1,401,389,386,-1,353,386,389,-1,387,401,386,-1,387,385,392,-1,381,385,384,-1,392,385,383,-1,383,385,382,-1,381,382,385,-1,403,371,357,-1,403,357,356,-1,388,366,361,-1,369,397,400,-1,358,403,402,-1,402,389,359,-1,359,389,361,-1,358,371,403,-1,358,402,359,-1,388,397,366,-1,389,388,361,-1,369,366,397,-1,395,369,400,-1,369,395,365,-1,394,363,368,-1,365,399,368,-1,394,368,399,-1,395,399,365,-1,396,363,394,-1,364,396,398,-1,396,364,363,-1,364,398,367,-1,393,362,367,-1,393,367,398,-1,387,375,373,-1,380,392,391,-1,360,393,390,-1,390,401,370,-1,370,401,373,-1,360,362,393,-1,360,390,370,-1,387,392,375,-1,401,387,373,-1,380,375,392,-1,383,380,391,-1,380,383,379,-1,404,405,406,-1,407,408,406,-1,404,406,408,-1,409,408,407,-1,410,405,404,-1,411,410,412,-1,410,411,405,-1,411,412,413,-1,407,414,415,-1,416,417,418,-1,416,415,417,-1,419,420,421,-1,422,423,417,-1,421,423,422,-1,420,423,421,-1,421,424,419,-1,421,422,425,-1,423,418,417,-1,415,416,426,-1,405,413,406,-1,407,406,413,-1,411,413,405,-1,413,414,407,-1,414,413,427,-1,407,415,428,-1,429,428,426,-1,428,415,426,-1,429,430,428,-1,431,430,429,-1,432,433,430,-1,434,430,435,-1,435,430,431,-1,432,430,434,-1,436,435,431,-1,437,432,434,-1,435,438,434,-1,437,434,438,-1,439,438,435,-1,440,432,437,-1,433,440,441,-1,440,433,432,-1,433,441,430,-1,428,430,441,-1,441,442,428,-1,442,407,428,-1,442,409,407,-1,443,442,441,-1,444,445,446,-1,439,447,448,-1,449,444,446,-1,450,451,452,-1,453,444,454,-1,451,453,454,-1,452,451,454,-1,451,450,455,-1,451,456,453,-1,454,444,449,-1,445,457,446,-1,404,408,412,-1,409,412,408,-1,458,459,412,-1,412,409,458,-1,412,410,404,-1,445,458,409,-1,457,445,442,-1,409,442,445,-1,443,457,442,-1,443,441,448,-1,437,441,440,-1,448,441,439,-1,439,441,438,-1,437,438,441,-1,427,413,412,-1,412,459,427,-1,414,427,459,-1,422,417,444,-1,415,458,445,-1,425,453,456,-1,453,425,422,-1,444,417,445,-1,453,422,444,-1,415,414,458,-1,417,415,445,-1,459,458,414,-1,456,421,425,-1,456,451,421,-1,450,419,424,-1,421,455,424,-1,450,424,455,-1,451,455,421,-1,452,419,450,-1,420,452,454,-1,452,420,419,-1,420,454,423,-1,418,423,454,-1,454,449,418,-1,416,418,449,-1,431,429,443,-1,426,446,457,-1,436,448,447,-1,448,436,431,-1,443,429,457,-1,448,431,443,-1,426,416,446,-1,429,426,457,-1,449,446,416,-1,447,435,436,-1,447,439,435,-1,
        ]
    }
}
Shape{
    appearance Appearance {
        material  Material 	{
            diffuseColor 0.9019607843137255 0.8823529411764706 0.8431372549019608
            specularColor 0.7529411764705882 0.7529411764705882 0.7529411764705882
            ambientIntensity 1.0
            transparency 1.0
            shininess 0.5
        }
    }
    geometry IndexedFaceSet {
        ccw TRUE
        solid FALSE
        coord DEF co Coordinate {
            point [
                -1.7717 -0.4134 2.0079, -0.2953 -0.4134 1.4764, -0.4922 -0.4134 1.4764, 0.4921 -0.4134 1.2795, 1.0826 -0.4134 1.2795, 0.748 -0.4134 0.374, 1.7716 -0.4134 2.0079, -2.067 -0.4134 1.2795, -1.8701 -0.4134 1.2795, -1.6142 -0.4134 0.374, 1.7716 -0.4134 1.811, 0.4921 -0.4134 1.4764, 1.6141 -0.4134 0.2756, 1.6141 -0.4134 0.374, 2.5197 -0.4134 0.2756, 1.5354 -0.4134 0.374, 1.2795 -0.4134 1.2795, 1.87 -0.4134 1.2795, 2.0669 -0.4134 1.2795, 2.5197 -0.4134 1.811, 2.0669 -0.4134 1.4764, 2.2047 -0.4134 1.811, 0.2952 -0.4134 1.2795, 0.0393 -0.4134 0.374, 0.8267 -0.4134 0.2756, 0.8267 -0.4134 0.374, 1.5354 -0.4134 0.2756, 0.2952 -0.4134 1.4764, 0.0393 -0.4134 0.2756, -0.4922 -0.4134 1.2795, -0.2953 -0.4134 1.2795, -0.7481 -0.4134 0.374, 0.748 -0.4134 0.2756, -0.0394 -0.4134 0.374, -0.7481 -0.4134 0.2756, -0.8268 -0.4134 0.374, -0.0394 -0.4134 0.2756, -1.5355 -0.4134 0.374, -1.2796 -0.4134 1.2795, -1.0827 -0.4134 1.2795, -1.5355 -0.4134 0.2756, -0.8268 -0.4134 0.2756, -1.6142 -0.4134 0.2756, -2.5197 -0.4134 0.2756, -2.2048 -0.4134 1.811, -1.7717 -0.4134 1.811, -2.067 -0.4134 1.4764, -1.8701 -0.4134 1.4764, -2.5197 -0.4134 1.811, -1.0827 -0.4134 1.4764, -1.2796 -0.4134 1.4764, 1.2795 -0.4134 1.4764, 1.0826 -0.4134 1.4764, 1.87 -0.4134 1.4764, -1.6142 0.689 0.374, -1.6142 0.689 0.2756, -0.0394 0.689 0.2756, 2.5197 1.3976 0.2756, -2.5197 1.3976 0.2756, 1.5354 0.689 0.2756, 1.6141 0.689 0.2756, 0.8267 0.689 0.2756, 0.748 0.689 0.2756, 0.0393 0.689 0.2756, -0.7481 0.689 0.2756, -0.8268 0.689 0.2756, -1.5355 0.689 0.2756, -1.5355 0.689 0.374, -2.5197 1.4764 1.0236, -2.5197 1.4764 0.1969, -2.5197 0.689 1.378, -2.5197 0.8071 1.811, -2.5197 -0.8858 2.2047, -2.5197 0.8071 2.2047, -2.5197 -0.8858 1.811, -2.5197 1.4764 1.378, -2.5197 1.4764 1.811, -2.5197 0.689 1.0236, 2.5197 1.4764 1.811, 2.7952 1.4764 2.2047, 2.7952 1.4764 1.378, 2.2047 1.4764 2.0079, 1.7716 1.4764 1.811, 1.7716 1.4764 2.0079, 2.2047 1.4764 2.2047, -1.7717 1.4764 2.0079, -2.7953 1.4764 2.2047, -2.7953 1.4764 1.378, -1.7717 1.4764 1.811, 2.5197 1.4764 2.2047, 2.5197 1.4764 2.0079, 2.5197 1.4764 1.378, 2.7952 1.4764 0.0394, 2.5197 1.4764 0.1969, 2.7952 1.4764 1.0236, 2.5197 1.4764 1.0236, 2.3228 1.4764 0.0787, -2.3229 1.4764 0.0787, 2.3228 1.4764 0.0394, -2.3229 1.4764 0.0394, -2.7953 1.4764 0.0394, -2.7953 1.4764 1.0236, 2.7952 0.689 1.378, 2.5197 0.689 1.378, 2.7952 0.689 1.0236, 2.5197 0.689 1.0236, 3.1496 1.1417 1.0236, 2.7952 1.1417 1.0236, 3.1496 -0.6299 1.0236, 2.7952 -0.6299 1.0236, 2.7952 0.2953 1.378, 2.7952 -0.6299 1.378, 2.7952 1.1417 1.8898, 2.7952 0.2953 1.8898, 2.7952 1.1417 2.2047, 2.7952 1.1417 0.9055, 2.7952 0.2165 0.0394, 2.7952 0.2165 0.9055, 2.9921 -0.6299 1.378, 3.1496 -0.6299 1.8898, 2.9921 -0.6299 1.8898, 2.9921 0.2953 1.378, 2.9921 0.2953 1.8898, 3.1496 1.1417 1.8898, 3.1496 -1.5551 0.0394, 3.1496 0.2165 0.0394, 3.1496 -0.8858 2.2047, 3.1496 1.1417 2.2047, 3.1496 -0.8858 1.4567, 3.1496 -1.5551 1.0236, 3.1496 0.2165 0.5118, 3.1496 1.1417 0.5118, 2.9921 1.1417 0.9055, 2.9921 1.1417 0.5118, 2.5197 1.1614 2.2047, -2.2048 0.8071 2.2047, -3.1496 -0.8858 2.2047, -2.7953 1.1417 2.2047, -3.1496 1.1417 2.2047, -2.2048 -0.8858 2.2047, 2.2047 -0.8858 2.2047, 2.2047 1.1614 2.2047, 2.5197 0.8071 2.2047, 2.2047 0.8071 2.2047, 2.5197 -0.8858 2.2047, 2.0866 -0.8858 0.4331, 2.3228 -0.8858 0.0787, 2.8346 -0.8858 0.4331, 2.0866 -0.8858 0.0787, 2.8346 -0.8858 0.0394, 2.3228 -0.8858 0.0394, 1.2992 -0.8858 0.4331, 1.8504 -0.8858 0.0787, 1.8504 -0.8858 0.4331, 1.2992 -0.8858 0.0787, 0.5118 -0.8858 0.4331, 1.063 -0.8858 0.0787, 1.063 -0.8858 0.4331, 0.5118 -0.8858 0.0787, -0.2756 -0.8858 0.4331, 0.2756 -0.8858 0.0787, 0.2756 -0.8858 0.4331, -0.2756 -0.8858 0.0787, -1.063 -0.8858 0.4331, -0.5118 -0.8858 0.0787, -0.5118 -0.8858 0.4331, -1.063 -0.8858 0.0787, -2.8347 -0.8858 0.0394, -2.3229 -0.8858 0.0394, -2.3229 -0.8858 0.0787, -2.0866 -0.8858 0.4331, -2.8347 -0.8858 0.4331, -2.0866 -0.8858 0.0787, -1.8504 -0.8858 0.4331, -1.2992 -0.8858 0.0787, -1.2992 -0.8858 0.4331, -1.8504 -0.8858 0.0787, 0.2952 -0.8858 1.4214, 1.9685 -0.8858 1.7323, -1.9685 -0.8858 1.7323, -1.0827 -0.8858 1.4214, -1.2796 -0.8858 1.4214, -3.1496 -0.8858 1.4567, -2.8347 -0.8858 1.4567, -1.8701 -0.8858 1.4214, -1.2796 -0.8858 1.0236, -0.4922 -0.8858 1.0236, -0.4922 -0.8858 1.4214, -1.8701 -0.8858 1.0236, -1.9685 -0.8858 2.0472, 1.9685 -0.8858 2.0472, 0.2952 -0.8858 1.0236, -0.2953 -0.8858 1.4214, -1.0827 -0.8858 1.0236, 0.4921 -0.8858 1.4214, 2.2047 -0.8858 1.811, 1.0826 -0.8858 1.0236, 1.0826 -0.8858 1.4214, -0.2953 -0.8858 1.0236, 1.2795 -0.8858 1.4214, 1.87 -0.8858 1.4214, 2.0669 -0.8858 1.4214, 1.87 -0.8858 1.0236, 0.4921 -0.8858 1.0236, 2.8346 -0.8858 1.4567, 2.8346 -0.8858 1.0236, 1.2795 -0.8858 1.0236, 2.5197 -0.8858 1.811, 2.0669 -0.8858 1.0236, -2.2048 -0.8858 1.811, -2.067 -0.8858 1.4214, -2.8347 -0.8858 1.0236, -2.067 -0.8858 1.0236, -1.9685 -0.6496 1.7323, -1.9685 -0.6496 2.0472, 1.9685 -0.6496 2.0472, 1.9685 -0.6496 1.7323, -2.8347 -0.6496 1.0236, -1.2992 -0.6496 0.4331, -1.063 -0.6496 0.4331, -1.063 -0.6496 0.0787, -1.8504 -0.6496 0.4331, -1.2992 -0.6496 0.0787, -0.2756 -0.6496 0.0787, -0.2756 -0.6496 0.4331, -0.5118 -0.6496 0.4331, 0.5118 -0.6496 0.0787, 0.5118 -0.6496 0.4331, 0.2756 -0.6496 0.4331, -0.5118 -0.6496 0.0787, 2.8346 -0.6496 1.0236, 1.2992 -0.6496 0.0787, 1.2992 -0.6496 0.4331, 1.063 -0.6496 0.4331, 0.2756 -0.6496 0.0787, 2.0866 -0.6496 0.0787, 2.0866 -0.6496 0.4331, 1.8504 -0.6496 0.4331, 1.063 -0.6496 0.0787, 1.8504 -0.6496 0.0787, 2.8346 -0.6496 0.4331, -2.8347 -0.6496 0.4331, -2.0866 -0.6496 0.4331, -2.0866 -0.6496 0.0787, -1.8504 -0.6496 0.0787, -0.4549 0.1923 0.0787, -0.3373 0.1923 0.0787, -0.3121 0.1923 0.0787, -0.4129 0.394 0.0787, -0.4801 0.1923 0.0787, 0.108 0.2438 0.0787, 0.0744 0.394 0.0787, 0.108 0.3425 0.0787, 0.0492 0.2181 0.0787, -0.06 0.2867 0.0787, 0.0492 0.2867 0.0787, 0.1374 0.2309 0.0787, 0.1332 0.2438 0.0787, 0.1669 0.2181 0.0787, -0.0768 0.394 0.0787, -0.1104 0.394 0.0787, -0.1104 0.1923 0.0787, -0.4381 0.2438 0.0787, -0.3541 0.2438 0.0787, -0.2113 0.394 0.0787, -0.0768 0.1923 0.0787, 0.0744 0.1923 0.0787, 0.4567 0.1923 0.0787, -0.3793 0.394 0.0787, -0.2659 0.2224 0.0787, -0.2743 0.2395 0.0787, -0.2113 0.1923 0.0787, -0.2785 0.261 0.0787, -0.2323 0.1966 0.0787, -0.2491 0.2052 0.0787, -0.2785 0.3253 0.0787, -0.2743 0.3468 0.0787, -0.2659 0.364 0.0787, -0.2491 0.3811 0.0787, -0.2323 0.3897 0.0787, 0.2047 0.2181 0.0787, -0.06 0.3125 0.0787, 0.0492 0.3682 0.0787, 0.0492 0.3125 0.0787, -0.0768 0.2181 0.0787, -0.0768 0.3682 0.0787, 0.15 0.2224 0.0787, 0.3055 0.2181 0.0787, 0.2425 0.2052 0.0787, 0.2593 0.2224 0.0787, 0.2677 0.3468 0.0787, 0.4315 0.394 0.0787, 0.2719 0.3253 0.0787, 0.2341 0.2309 0.0787, 0.2215 0.2224 0.0787, 0.2425 0.2438 0.0787, 0.2593 0.364 0.0787, 0.2425 0.3811 0.0787, 0.2467 0.261 0.0787, 0.1332 0.3425 0.0787, 0.2467 0.3253 0.0787, 0.15 0.364 0.0787, 0.1669 0.3682 0.0787, 0.1374 0.3554 0.0787, 0.2047 0.3682 0.0787, 0.2215 0.364 0.0787, 0.2341 0.3554 0.0787, 0.1669 0.394 0.0787, 0.1458 0.3897 0.0787, 0.1122 0.364 0.0787, 0.129 0.3811 0.0787, 0.2425 0.3425 0.0787, 0.2047 0.394 0.0787, 0.2257 0.3897 0.0787, 0.4315 0.2181 0.0787, 0.2719 0.261 0.0787, 0.2677 0.2395 0.0787, 0.3055 0.1923 0.0787, 0.2257 0.1966 0.0787, 0.1669 0.1923 0.0787, 0.2047 0.1923 0.0787, 0.1458 0.1966 0.0787, 0.129 0.2052 0.0787, 0.1122 0.2224 0.0787, 0.4567 0.394 0.0787, -0.2407 0.3554 0.0787, -0.2533 0.3253 0.0787, -0.2491 0.3425 0.0787, -0.1356 0.2181 0.0787, -0.2113 0.3682 0.0787, -0.1356 0.3682 0.0787, -0.2281 0.364 0.0787, -0.2281 0.2224 0.0787, -0.2533 0.261 0.0787, -0.2113 0.2181 0.0787, -0.2491 0.2438 0.0787, -0.2407 0.2309 0.0787, -0.4339 0.261 0.0787, -0.3961 0.3768 0.0787, -0.3583 0.261 0.0787, -3.1496 -1.5551 0.0394, -3.1496 0.2165 0.0394, -2.8347 -1.5551 0.0394, -2.7953 0.2165 0.0394, 2.8346 -1.5551 0.0394, -2.7953 -0.6299 1.0236, -2.7953 0.2953 1.378, -2.7953 0.689 1.0236, -2.7953 -0.6299 1.378, -2.7953 1.1417 1.8898, -2.7953 0.689 1.378, -2.7953 0.2953 1.8898, -2.7953 1.1417 0.9055, -2.7953 0.2165 0.9055, -2.7953 1.1417 1.0236, -3.1496 -0.6299 1.0236, -3.1496 1.1417 1.0236, -3.1496 1.1417 1.8898, -2.9922 1.1417 0.9055, -3.1496 1.1417 0.5118, -2.9922 1.1417 0.5118, -2.9922 0.2953 1.8898, -3.1496 -0.6299 1.8898, -2.9922 -0.6299 1.8898, -2.9922 0.2953 1.378, -2.9922 -0.6299 1.378, -3.1496 0.2165 0.5118, -3.1496 -1.5551 1.0236, -2.8347 -1.5551 1.0236, -1.0827 -0.7874 1.0236, -1.2796 -0.7874 1.0236, -0.2953 -0.7874 1.0236, -0.4922 -0.7874 1.0236, -1.8701 -0.7874 1.0236, -2.067 -0.7874 1.0236, 0.2952 -0.7874 1.0236, 1.0826 -0.7874 1.0236, 0.4921 -0.7874 1.0236, 1.87 -0.7874 1.0236, 1.2795 -0.7874 1.0236, 2.0669 -0.7874 1.0236, 2.8346 -1.5551 1.0236, -2.9922 0.2165 0.5118, -2.9922 0.2165 0.9055, 2.9921 0.2165 0.5118, 2.9921 0.2165 0.9055, -2.2048 -0.0066 1.811, -2.2048 0.4003 1.811, -2.2048 0.8071 1.811, 2.2047 -0.0066 1.811, 2.2047 0.4003 1.811, 2.2047 0.8071 1.811, 2.5197 0.8071 1.811, 2.2047 1.1614 2.0079, 2.5197 1.1614 2.0079, 1.6141 0.689 0.374, 1.5354 0.689 0.374, 0.8267 0.689 0.374, 0.748 0.689 0.374, 0.0393 0.689 0.374, -0.0394 0.689 0.374, -0.7481 0.689 0.374, -0.8268 0.689 0.374
            ]
        }
        coordIndex [
            0,1,2,-1,3,4,5,-1,6,1,0,-1,7,8,9,-1,6,10,11,-1,12,13,14,-1,15,16,17,-1,18,19,14,-1,20,21,19,-1,22,3,23,-1,24,25,15,-1,24,15,26,-1,6,11,27,-1,23,5,28,-1,29,30,31,-1,28,5,32,-1,20,10,21,-1,31,33,34,-1,35,29,31,-1,34,33,36,-1,37,38,39,-1,37,35,40,-1,37,9,38,-1,40,35,41,-1,42,43,9,-1,38,9,8,-1,22,23,33,-1,44,45,46,-1,45,47,46,-1,48,46,7,-1,44,46,48,-1,9,43,7,-1,48,7,43,-1,39,29,35,-1,45,49,50,-1,47,45,50,-1,8,47,50,-1,39,35,37,-1,50,38,8,-1,30,22,33,-1,45,0,2,-1,49,45,2,-1,39,49,2,-1,30,33,31,-1,2,29,39,-1,51,52,10,-1,5,4,25,-1,1,6,27,-1,30,1,27,-1,3,5,23,-1,27,22,30,-1,16,25,4,-1,10,20,53,-1,11,10,52,-1,3,11,52,-1,16,15,25,-1,52,4,3,-1,17,13,15,-1,18,20,19,-1,51,10,53,-1,16,51,53,-1,17,18,13,-1,53,17,16,-1,13,18,14,-1,9,54,55,-1,9,55,42,-1,56,57,58,-1,57,59,60,-1,57,60,14,-1,14,60,12,-1,59,57,61,-1,57,62,61,-1,59,24,26,-1,24,59,61,-1,57,63,62,-1,57,56,63,-1,62,28,32,-1,28,62,63,-1,42,55,43,-1,64,56,58,-1,56,34,36,-1,64,34,56,-1,65,64,58,-1,66,65,58,-1,65,40,41,-1,66,40,65,-1,55,66,58,-1,43,55,58,-1,55,54,67,-1,55,67,66,-1,40,66,67,-1,40,67,37,-1,37,67,54,-1,37,54,9,-1,68,58,69,-1,70,71,48,-1,72,48,73,-1,48,72,74,-1,71,70,75,-1,48,71,73,-1,76,71,75,-1,70,48,77,-1,58,77,43,-1,48,43,77,-1,77,58,68,-1,78,79,80,-1,81,82,83,-1,84,85,86,-1,84,83,85,-1,85,76,86,-1,87,86,76,-1,85,88,76,-1,76,75,87,-1,89,79,90,-1,82,81,78,-1,83,84,81,-1,78,90,79,-1,81,90,78,-1,78,80,91,-1,92,93,94,-1,93,95,94,-1,93,92,96,-1,96,97,93,-1,96,92,98,-1,99,100,97,-1,100,101,69,-1,97,69,93,-1,68,69,101,-1,97,100,69,-1,102,91,80,-1,91,102,103,-1,104,103,102,-1,103,104,105,-1,104,106,107,-1,108,106,104,-1,95,107,94,-1,95,105,107,-1,105,104,107,-1,108,104,109,-1,110,111,109,-1,102,110,104,-1,102,112,113,-1,79,114,112,-1,79,112,80,-1,113,110,102,-1,112,102,80,-1,104,110,109,-1,94,107,115,-1,115,92,94,-1,116,92,115,-1,115,117,116,-1,109,111,118,-1,119,108,118,-1,119,118,120,-1,109,118,108,-1,121,122,120,-1,120,118,121,-1,122,121,110,-1,110,113,122,-1,123,119,122,-1,122,112,123,-1,122,119,120,-1,112,122,113,-1,108,124,125,-1,126,119,127,-1,119,126,128,-1,129,124,108,-1,127,119,123,-1,108,128,129,-1,119,128,108,-1,108,130,106,-1,108,125,130,-1,130,131,106,-1,123,114,127,-1,114,123,112,-1,106,131,132,-1,132,107,106,-1,132,131,133,-1,107,132,115,-1,79,89,134,-1,79,134,114,-1,86,135,84,-1,72,73,136,-1,137,135,86,-1,73,138,136,-1,135,139,140,-1,137,73,135,-1,73,137,138,-1,141,84,135,-1,142,141,143,-1,141,135,143,-1,135,140,143,-1,142,134,141,-1,144,126,142,-1,126,127,142,-1,134,142,114,-1,142,127,114,-1,145,146,147,-1,146,145,148,-1,149,146,150,-1,146,149,147,-1,151,152,153,-1,152,151,154,-1,155,156,157,-1,156,155,158,-1,159,160,161,-1,160,159,162,-1,163,164,165,-1,164,163,166,-1,167,168,169,-1,170,171,169,-1,167,169,171,-1,169,172,170,-1,173,174,175,-1,174,173,176,-1,177,178,179,-1,180,179,181,-1,74,182,183,-1,184,185,181,-1,186,187,180,-1,184,188,185,-1,189,190,139,-1,191,177,192,-1,180,193,186,-1,177,194,178,-1,178,195,190,-1,196,197,194,-1,192,198,191,-1,199,200,178,-1,178,200,201,-1,202,200,199,-1,194,203,196,-1,201,204,178,-1,205,204,201,-1,199,206,202,-1,144,207,126,-1,207,195,178,-1,201,208,205,-1,192,177,179,-1,128,126,207,-1,136,74,72,-1,74,179,209,-1,204,207,178,-1,207,204,128,-1,139,209,189,-1,181,179,184,-1,74,183,179,-1,179,210,184,-1,182,74,136,-1,210,183,211,-1,183,210,179,-1,210,211,212,-1,180,187,179,-1,192,179,187,-1,179,189,209,-1,139,190,140,-1,195,140,190,-1,194,197,178,-1,199,178,197,-1,189,179,213,-1,213,214,189,-1,190,189,214,-1,214,215,190,-1,178,190,215,-1,215,216,178,-1,179,178,216,-1,216,213,179,-1,214,216,215,-1,216,214,213,-1,217,218,219,-1,218,220,219,-1,218,217,221,-1,220,218,222,-1,223,224,225,-1,217,219,225,-1,224,217,225,-1,226,227,228,-1,225,229,223,-1,217,224,228,-1,228,230,217,-1,231,232,233,-1,228,234,226,-1,227,230,228,-1,227,233,230,-1,235,236,237,-1,233,238,231,-1,232,230,233,-1,232,237,230,-1,237,239,235,-1,236,230,237,-1,236,240,230,-1,217,241,242,-1,243,244,242,-1,242,244,221,-1,217,242,221,-1,240,145,147,-1,240,236,145,-1,237,151,153,-1,237,232,151,-1,233,155,157,-1,233,227,155,-1,228,159,161,-1,228,224,159,-1,225,163,165,-1,225,219,163,-1,171,170,242,-1,242,241,171,-1,218,173,175,-1,218,221,173,-1,235,145,236,-1,235,148,145,-1,244,222,174,-1,243,169,97,-1,174,176,244,-1,164,220,229,-1,229,245,223,-1,246,223,245,-1,160,223,234,-1,220,164,166,-1,247,223,246,-1,97,248,249,-1,156,226,238,-1,223,160,162,-1,243,97,249,-1,250,251,252,-1,152,231,239,-1,226,156,158,-1,253,254,255,-1,256,257,258,-1,146,235,96,-1,231,152,154,-1,259,260,97,-1,260,254,261,-1,235,146,148,-1,172,169,243,-1,246,262,263,-1,97,260,264,-1,265,266,234,-1,238,226,267,-1,229,220,249,-1,249,220,222,-1,244,249,222,-1,245,229,249,-1,246,245,262,-1,244,243,249,-1,268,248,97,-1,269,247,270,-1,271,261,223,-1,247,271,223,-1,270,247,272,-1,247,273,271,-1,247,274,273,-1,247,269,274,-1,268,272,247,-1,275,272,268,-1,276,275,268,-1,277,276,268,-1,268,278,277,-1,268,279,278,-1,268,264,279,-1,97,264,268,-1,223,265,234,-1,258,257,280,-1,281,282,283,-1,254,284,261,-1,281,254,260,-1,259,97,251,-1,281,260,285,-1,281,285,282,-1,285,260,259,-1,96,251,97,-1,231,238,267,-1,261,265,223,-1,284,254,253,-1,261,284,265,-1,250,252,257,-1,286,256,258,-1,231,267,239,-1,287,288,289,-1,290,291,292,-1,293,280,257,-1,293,294,280,-1,257,295,293,-1,291,296,297,-1,257,298,295,-1,298,299,300,-1,301,302,303,-1,304,299,302,-1,304,305,306,-1,302,299,303,-1,251,307,308,-1,266,251,250,-1,251,96,307,-1,306,299,304,-1,309,251,310,-1,311,299,306,-1,299,311,300,-1,299,298,257,-1,251,309,252,-1,257,252,299,-1,310,251,308,-1,312,307,96,-1,312,291,313,-1,313,291,297,-1,291,314,292,-1,314,315,292,-1,287,316,315,-1,267,235,239,-1,288,287,317,-1,288,317,318,-1,316,287,289,-1,226,234,317,-1,319,320,234,-1,317,267,226,-1,266,319,234,-1,266,321,319,-1,266,322,321,-1,322,266,323,-1,266,250,323,-1,291,96,324,-1,287,315,314,-1,320,317,234,-1,318,317,320,-1,267,324,235,-1,96,291,312,-1,290,296,291,-1,235,324,96,-1,325,326,327,-1,328,329,330,-1,326,325,331,-1,332,333,334,-1,335,333,336,-1,332,336,333,-1,326,334,333,-1,334,326,329,-1,334,329,328,-1,329,326,331,-1,337,338,339,-1,242,170,172,-1,172,243,242,-1,244,173,221,-1,244,176,173,-1,218,175,174,-1,174,222,218,-1,220,163,219,-1,220,166,163,-1,225,165,164,-1,164,229,225,-1,223,159,224,-1,223,162,159,-1,228,161,160,-1,160,234,228,-1,226,155,227,-1,226,158,155,-1,233,157,156,-1,156,238,233,-1,231,151,232,-1,231,154,151,-1,237,153,152,-1,152,239,237,-1,96,98,150,-1,150,146,96,-1,340,341,167,-1,167,342,340,-1,100,99,343,-1,168,343,99,-1,343,167,341,-1,167,343,168,-1,149,125,124,-1,116,149,150,-1,149,124,344,-1,150,98,116,-1,149,116,125,-1,116,98,92,-1,345,346,347,-1,346,345,348,-1,349,350,351,-1,346,351,350,-1,86,87,349,-1,349,137,86,-1,347,346,350,-1,349,87,350,-1,352,343,353,-1,101,100,352,-1,101,352,354,-1,100,343,352,-1,347,70,77,-1,347,350,70,-1,350,87,75,-1,75,70,350,-1,354,347,77,-1,354,77,68,-1,355,347,356,-1,347,355,345,-1,347,354,356,-1,68,101,354,-1,137,357,138,-1,137,349,357,-1,358,356,354,-1,359,358,360,-1,359,356,358,-1,354,352,358,-1,361,357,349,-1,362,361,363,-1,362,357,361,-1,349,351,361,-1,363,361,364,-1,363,364,365,-1,345,365,348,-1,362,365,355,-1,345,355,365,-1,365,362,363,-1,366,356,359,-1,340,366,341,-1,340,367,355,-1,182,355,367,-1,138,357,362,-1,356,366,355,-1,362,182,136,-1,138,362,136,-1,362,355,182,-1,340,355,366,-1,367,368,183,-1,367,183,182,-1,241,211,171,-1,167,171,342,-1,342,171,368,-1,183,368,211,-1,171,211,368,-1,241,217,211,-1,369,370,217,-1,217,371,372,-1,373,185,188,-1,211,217,374,-1,217,372,369,-1,373,370,185,-1,369,186,193,-1,217,230,375,-1,217,375,371,-1,369,372,186,-1,371,191,198,-1,230,376,377,-1,377,375,230,-1,371,375,191,-1,377,196,203,-1,230,378,379,-1,379,376,230,-1,377,376,196,-1,379,202,206,-1,205,380,230,-1,380,378,230,-1,379,378,202,-1,380,205,208,-1,370,373,217,-1,212,211,374,-1,373,374,217,-1,205,381,204,-1,147,344,381,-1,147,381,205,-1,205,230,240,-1,205,240,147,-1,344,147,149,-1,129,128,204,-1,204,381,129,-1,124,129,381,-1,381,344,124,-1,340,368,367,-1,368,340,342,-1,382,353,343,-1,382,341,366,-1,382,343,341,-1,382,383,353,-1,358,352,353,-1,353,383,358,-1,383,360,358,-1,383,382,360,-1,366,360,382,-1,366,359,360,-1,348,365,364,-1,348,364,346,-1,346,364,361,-1,346,361,351,-1,169,99,97,-1,169,168,99,-1,125,116,384,-1,117,385,384,-1,125,384,130,-1,117,384,116,-1,133,131,130,-1,133,130,384,-1,385,132,133,-1,385,133,384,-1,132,385,117,-1,132,117,115,-1,209,44,48,-1,209,48,74,-1,207,19,21,-1,207,21,195,-1,44,139,386,-1,44,209,139,-1,135,387,386,-1,386,139,135,-1,387,135,388,-1,387,45,386,-1,76,388,71,-1,386,45,44,-1,88,387,388,-1,76,88,388,-1,88,45,387,-1,88,85,0,-1,0,45,88,-1,85,83,6,-1,6,0,85,-1,83,82,10,-1,10,6,83,-1,10,389,21,-1,82,390,10,-1,389,10,390,-1,78,391,82,-1,82,391,390,-1,78,392,391,-1,142,143,391,-1,391,392,142,-1,95,57,105,-1,78,91,392,-1,103,19,392,-1,105,19,103,-1,207,144,19,-1,91,103,392,-1,19,105,14,-1,392,19,142,-1,144,142,19,-1,95,93,57,-1,105,57,14,-1,93,69,58,-1,93,58,57,-1,390,143,389,-1,390,391,143,-1,389,143,140,-1,389,140,21,-1,21,140,195,-1,135,73,71,-1,71,388,135,-1,81,84,141,-1,141,393,81,-1,90,81,393,-1,393,394,90,-1,394,89,90,-1,394,134,89,-1,134,394,393,-1,134,393,141,-1,121,118,111,-1,111,110,121,-1,12,60,395,-1,12,395,13,-1,13,395,396,-1,13,396,15,-1,15,396,59,-1,15,59,26,-1,59,396,395,-1,59,395,60,-1,24,61,397,-1,24,397,25,-1,25,397,398,-1,25,398,5,-1,5,398,62,-1,5,62,32,-1,62,398,397,-1,62,397,61,-1,28,63,399,-1,28,399,23,-1,23,399,400,-1,23,400,33,-1,33,400,56,-1,33,56,36,-1,56,400,399,-1,56,399,63,-1,34,64,401,-1,34,401,31,-1,31,401,402,-1,31,402,35,-1,35,402,65,-1,35,65,41,-1,65,402,401,-1,65,401,64,-1,
        ]
    }
}
Shape{
    appearance Appearance {
        material  Material 	{
            diffuseColor 0.3176470588235294 0.3176470588235294 0.3176470588235294
            specularColor 0.7529411764705882 0.7529411764705882 0.7529411764705882
            ambientIntensity 1.0
            transparency 1.0
            shininess 0.5
        }
    }
    geometry IndexedFaceSet {
        ccw TRUE
        solid FALSE
        coord DEF co Coordinate {
            point [
                0.4567 0.1923 0.0787, 0.4567 0.1923 0.0709, 0.4567 0.394 0.0709, 0.4567 0.394 0.0787, 0.4315 0.394 0.0709, 0.4315 0.394 0.0787, 0.4315 0.2181 0.0709, 0.4315 0.2181 0.0787, 0.3055 0.2181 0.0709, 0.3055 0.2181 0.0787, 0.3055 0.1923 0.0709, 0.3055 0.1923 0.0787, 0.2341 0.3554 0.0709, 0.2593 0.364 0.0709, 0.2425 0.3425 0.0709, 0.108 0.3425 0.0709, 0.1122 0.364 0.0709, 0.1332 0.3425 0.0709, 0.2257 0.1966 0.0709, 0.2047 0.2181 0.0709, 0.2215 0.2224 0.0709, 0.1669 0.2181 0.0709, 0.1458 0.1966 0.0709, 0.15 0.2224 0.0709, 0.129 0.2052 0.0709, 0.1374 0.2309 0.0709, 0.1669 0.1923 0.0709, 0.2047 0.1923 0.0709, 0.2341 0.2309 0.0709, 0.2425 0.2052 0.0709, 0.2425 0.2438 0.0709, 0.2593 0.2224 0.0709, 0.2677 0.2395 0.0709, 0.2467 0.261 0.0709, 0.2677 0.3468 0.0709, 0.2467 0.3253 0.0709, 0.2719 0.3253 0.0709, 0.2719 0.261 0.0709, 0.2215 0.364 0.0709, 0.2425 0.3811 0.0709, 0.2257 0.3897 0.0709, 0.2047 0.3682 0.0709, 0.1669 0.394 0.0709, 0.2047 0.394 0.0709, 0.1669 0.3682 0.0709, 0.15 0.364 0.0709, 0.1458 0.3897 0.0709, 0.1374 0.3554 0.0709, 0.129 0.3811 0.0709, 0.1122 0.2224 0.0709, 0.1332 0.2438 0.0709, 0.108 0.2438 0.0709, 0.0744 0.1923 0.0709, 0.0492 0.2867 0.0709, 0.0744 0.394 0.0709, 0.0492 0.3125 0.0709, -0.0768 0.1923 0.0709, 0.0492 0.2181 0.0709, -0.06 0.2867 0.0709, -0.06 0.3125 0.0709, 0.0492 0.3682 0.0709, -0.0768 0.3682 0.0709, -0.0768 0.394 0.0709, -0.0768 0.2181 0.0709, -0.2743 0.2395 0.0709, -0.2533 0.261 0.0709, -0.2491 0.2438 0.0709, -0.2785 0.261 0.0709, -0.2533 0.3253 0.0709, -0.2785 0.3253 0.0709, -0.2659 0.364 0.0709, -0.2407 0.3554 0.0709, -0.2491 0.3425 0.0709, -0.2281 0.364 0.0709, -0.2491 0.3811 0.0709, -0.2323 0.3897 0.0709, -0.2113 0.3682 0.0709, -0.2113 0.394 0.0709, -0.2743 0.3468 0.0709, -0.1356 0.3682 0.0709, -0.1104 0.394 0.0709, -0.1356 0.2181 0.0709, -0.1104 0.1923 0.0709, -0.2113 0.2181 0.0709, -0.2323 0.1966 0.0709, -0.2281 0.2224 0.0709, -0.2407 0.2309 0.0709, -0.2491 0.2052 0.0709, -0.2659 0.2224 0.0709, -0.2113 0.1923 0.0709, -0.4801 0.1923 0.0709, -0.4129 0.394 0.0709, -0.4339 0.261 0.0709, -0.3541 0.2438 0.0709, -0.3121 0.1923 0.0709, -0.3373 0.1923 0.0709, -0.3583 0.261 0.0709, -0.4549 0.1923 0.0709, -0.4381 0.2438 0.0709, -0.3793 0.394 0.0709, -0.3961 0.3768 0.0709, 0.1332 0.2438 0.0787, 0.108 0.2438 0.0787, 0.1122 0.2224 0.0787, 0.129 0.2052 0.0787, 0.1458 0.1966 0.0787, 0.1669 0.1923 0.0787, 0.2047 0.1923 0.0787, 0.2257 0.1966 0.0787, 0.2425 0.2052 0.0787, 0.2593 0.2224 0.0787, 0.2677 0.2395 0.0787, 0.2719 0.261 0.0787, 0.2719 0.3253 0.0787, 0.2677 0.3468 0.0787, 0.2593 0.364 0.0787, 0.2425 0.3811 0.0787, 0.2257 0.3897 0.0787, 0.2047 0.394 0.0787, 0.1669 0.394 0.0787, 0.1458 0.3897 0.0787, 0.129 0.3811 0.0787, 0.1122 0.364 0.0787, 0.108 0.3425 0.0787, 0.1332 0.3425 0.0787, 0.1374 0.3554 0.0787, 0.15 0.364 0.0787, 0.1669 0.3682 0.0787, 0.2047 0.3682 0.0787, 0.2215 0.364 0.0787, 0.2341 0.3554 0.0787, 0.2425 0.3425 0.0787, 0.2467 0.3253 0.0787, 0.2467 0.261 0.0787, 0.2425 0.2438 0.0787, 0.2341 0.2309 0.0787, 0.2215 0.2224 0.0787, 0.2047 0.2181 0.0787, 0.1669 0.2181 0.0787, 0.15 0.2224 0.0787, 0.1374 0.2309 0.0787, 0.0492 0.2181 0.0787, -0.0768 0.2181 0.0787, -0.0768 0.1923 0.0787, 0.0744 0.1923 0.0787, 0.0744 0.394 0.0787, -0.0768 0.394 0.0787, -0.0768 0.3682 0.0787, 0.0492 0.3682 0.0787, 0.0492 0.3125 0.0787, -0.06 0.3125 0.0787, -0.06 0.2867 0.0787, 0.0492 0.2867 0.0787, -0.1104 0.394 0.0787, -0.2113 0.394 0.0787, -0.2323 0.3897 0.0787, -0.2491 0.3811 0.0787, -0.2659 0.364 0.0787, -0.2743 0.3468 0.0787, -0.2785 0.3253 0.0787, -0.2785 0.261 0.0787, -0.2743 0.2395 0.0787, -0.2659 0.2224 0.0787, -0.2491 0.2052 0.0787, -0.2323 0.1966 0.0787, -0.2113 0.1923 0.0787, -0.1104 0.1923 0.0787, -0.2113 0.3682 0.0787, -0.1356 0.3682 0.0787, -0.1356 0.2181 0.0787, -0.2113 0.2181 0.0787, -0.2281 0.2224 0.0787, -0.2407 0.2309 0.0787, -0.2491 0.2438 0.0787, -0.2533 0.261 0.0787, -0.2533 0.3253 0.0787, -0.2491 0.3425 0.0787, -0.2407 0.3554 0.0787, -0.2281 0.364 0.0787, -0.3793 0.394 0.0787, -0.4129 0.394 0.0787, -0.4801 0.1923 0.0787, -0.4549 0.1923 0.0787, -0.4381 0.2438 0.0787, -0.3541 0.2438 0.0787, -0.3373 0.1923 0.0787, -0.3121 0.1923 0.0787, -0.4339 0.261 0.0787, -0.3961 0.3768 0.0787, -0.3583 0.261 0.0787
            ]
        }
        coordIndex [
            0,1,2,-1,0,2,3,-1,3,2,4,-1,3,4,5,-1,5,4,6,-1,5,6,7,-1,7,6,8,-1,7,8,9,-1,9,8,10,-1,9,10,11,-1,11,10,1,-1,11,1,0,-1,6,10,8,-1,6,2,1,-1,6,4,2,-1,10,6,1,-1,12,13,14,-1,15,16,17,-1,18,19,20,-1,21,22,23,-1,23,24,25,-1,26,19,27,-1,28,29,20,-1,30,31,28,-1,32,31,30,-1,30,33,32,-1,14,34,35,-1,33,36,37,-1,38,39,12,-1,40,39,38,-1,41,40,38,-1,42,43,44,-1,45,46,44,-1,47,48,45,-1,17,16,47,-1,25,49,50,-1,16,48,47,-1,48,46,45,-1,46,42,44,-1,43,41,44,-1,43,40,41,-1,12,39,13,-1,13,34,14,-1,34,36,35,-1,35,36,33,-1,37,32,33,-1,28,31,29,-1,20,29,18,-1,18,27,19,-1,26,21,19,-1,26,22,21,-1,22,24,23,-1,24,49,25,-1,49,51,50,-1,52,53,54,-1,53,55,54,-1,52,56,57,-1,55,58,59,-1,60,61,62,-1,62,54,60,-1,60,54,55,-1,58,55,53,-1,53,52,57,-1,56,63,57,-1,64,65,66,-1,67,65,64,-1,67,68,65,-1,67,69,68,-1,70,71,72,-1,73,71,74,-1,75,73,74,-1,75,76,73,-1,76,75,77,-1,68,78,72,-1,79,77,80,-1,81,80,82,-1,83,84,85,-1,79,76,77,-1,86,85,87,-1,74,71,70,-1,70,72,78,-1,78,68,69,-1,86,88,66,-1,88,64,66,-1,88,86,87,-1,87,85,84,-1,89,83,81,-1,84,83,89,-1,80,81,79,-1,89,81,82,-1,90,91,92,-1,93,94,95,-1,93,96,94,-1,97,90,98,-1,92,96,98,-1,92,98,90,-1,91,99,100,-1,96,93,98,-1,91,100,92,-1,100,99,96,-1,94,96,99,-1,101,50,51,-1,101,51,102,-1,102,51,49,-1,102,49,103,-1,103,49,24,-1,103,24,104,-1,104,24,22,-1,104,22,105,-1,105,22,26,-1,105,26,106,-1,106,26,27,-1,106,27,107,-1,107,27,18,-1,107,18,108,-1,108,18,29,-1,108,29,109,-1,109,29,31,-1,109,31,110,-1,110,31,32,-1,110,32,111,-1,111,32,37,-1,111,37,112,-1,112,37,36,-1,112,36,113,-1,113,36,34,-1,113,34,114,-1,114,34,13,-1,114,13,115,-1,115,13,39,-1,115,39,116,-1,116,39,40,-1,116,40,117,-1,117,40,43,-1,117,43,118,-1,118,43,42,-1,118,42,119,-1,119,42,46,-1,119,46,120,-1,120,46,48,-1,120,48,121,-1,121,48,16,-1,121,16,122,-1,122,16,15,-1,122,15,123,-1,123,15,17,-1,123,17,124,-1,124,17,47,-1,124,47,125,-1,125,47,45,-1,125,45,126,-1,126,45,44,-1,126,44,127,-1,127,44,41,-1,127,41,128,-1,128,41,38,-1,128,38,129,-1,129,38,12,-1,129,12,130,-1,130,12,14,-1,130,14,131,-1,131,14,35,-1,131,35,132,-1,132,35,33,-1,132,33,133,-1,133,33,30,-1,133,30,134,-1,134,30,28,-1,134,28,135,-1,135,28,20,-1,135,20,136,-1,136,20,19,-1,136,19,137,-1,137,19,21,-1,137,21,138,-1,138,21,23,-1,138,23,139,-1,139,23,25,-1,139,25,140,-1,140,25,50,-1,140,50,101,-1,141,57,63,-1,141,63,142,-1,142,63,56,-1,142,56,143,-1,143,56,52,-1,143,52,144,-1,144,52,54,-1,144,54,145,-1,145,54,62,-1,145,62,146,-1,146,62,61,-1,146,61,147,-1,147,61,60,-1,147,60,148,-1,148,60,55,-1,148,55,149,-1,149,55,59,-1,149,59,150,-1,150,59,58,-1,150,58,151,-1,151,58,53,-1,151,53,152,-1,152,53,57,-1,152,57,141,-1,153,80,77,-1,153,77,154,-1,154,77,75,-1,154,75,155,-1,155,75,74,-1,155,74,156,-1,156,74,70,-1,156,70,157,-1,157,70,78,-1,157,78,158,-1,158,78,69,-1,158,69,159,-1,159,69,67,-1,159,67,160,-1,160,67,64,-1,160,64,161,-1,161,64,88,-1,161,88,162,-1,162,88,87,-1,162,87,163,-1,163,87,84,-1,163,84,164,-1,164,84,89,-1,164,89,165,-1,165,89,82,-1,165,82,166,-1,166,82,80,-1,166,80,153,-1,167,76,79,-1,167,79,168,-1,168,79,81,-1,168,81,169,-1,169,81,83,-1,169,83,170,-1,170,83,85,-1,170,85,171,-1,171,85,86,-1,171,86,172,-1,172,86,66,-1,172,66,173,-1,173,66,65,-1,173,65,174,-1,174,65,68,-1,174,68,175,-1,175,68,72,-1,175,72,176,-1,176,72,71,-1,176,71,177,-1,177,71,73,-1,177,73,178,-1,178,73,76,-1,178,76,167,-1,179,99,91,-1,179,91,180,-1,180,91,90,-1,180,90,181,-1,181,90,97,-1,181,97,182,-1,182,97,98,-1,182,98,183,-1,183,98,93,-1,183,93,184,-1,184,93,95,-1,184,95,185,-1,185,95,94,-1,185,94,186,-1,186,94,99,-1,186,99,179,-1,187,92,100,-1,187,100,188,-1,188,100,96,-1,188,96,189,-1,189,96,92,-1,189,92,187,-1,
        ]
    }
}