<svg xmlns="http://www.w3.org/2000/svg" viewBox="0 0 200.0 200.0"><title>feather_15</title><path d="M 13.178,52.877 L 13.074,61.213 L 12.865,65.381 L 12.657,69.653 L 11.928,74.238 L 11.250,80.750 L 10.521,89.085 L 10.000,100.235 L 10.104,111.696 L 10.729,123.575 L 11.563,135.974 L 13.230,148.582 L 14.897,160.982 L 17.033,173.328 L 19.429,183.123 L 21.826,188.646 L 24.431,190.000 L 26.619,189.792 L 27.765,186.874 L 29.432,181.977 L 31.308,174.683 L 34.121,159.679 L 36.883,139.934 L 39.071,117.739 L 41.155,96.901 L 42.353,76.009 L 42.196,54.909 L 41.051,36.987 L 38.654,21.149 L 35.319,11.668 L 31.048,10.000 L 26.880,12.814 L 22.972,18.701 L 19.221,25.682 L 15.939,34.070 L 13.803,43.916 Z" fill="none" stroke="black" stroke-width="0.5"/></svg>