<?xml version="1.0" encoding="UTF-8" standalone="no"?>
<svg
   width="79.19mm"
   height="310.95mm"
   viewBox="8.000 8.000 79.194 310.954"
   version="1.1"
   id="svg1"
   sodipodi:docname="B1.svg"
   inkscape:version="1.4 (86a8ad7, 2024-10-11)"
   xmlns:inkscape="http://www.inkscape.org/namespaces/inkscape"
   xmlns:sodipodi="http://sodipodi.sourceforge.net/DTD/sodipodi-0.dtd"
   xmlns="http://www.w3.org/2000/svg"
   xmlns:svg="http://www.w3.org/2000/svg">
  <defs
     id="defs1" />
  <sodipodi:namedview
     id="namedview1"
     pagecolor="#ffffff"
     bordercolor="#666666"
     borderopacity="1.0"
     inkscape:showpageshadow="2"
     inkscape:pageopacity="0.0"
     inkscape:pagecheckerboard="0"
     inkscape:deskcolor="#d1d1d1"
     inkscape:document-units="mm"
     inkscape:zoom="1.54436"
     inkscape:cx="149.90029"
     inkscape:cy="587.62207"
     inkscape:window-width="3840"
     inkscape:window-height="2054"
     inkscape:window-x="-11"
     inkscape:window-y="-11"
     inkscape:window-maximized="1"
     inkscape:current-layer="svg1" />
  <g
     id="feather"
     transform="matrix(1.0020777,0.10490114,0.04235598,-1.1927405,-36.70496,354.94904)"
     data-source="feathers-aggregate.svg">
    <path
       fill="none"
       stroke="#000000"
       stroke-width="0.5"
       transform="rotate(-90,164.71401,172.68543)"
       sodipodi:nodetypes="ccccccccccccccccc"
       d="m 202.384,125.749 c 13.469,0 93.397,-7.023 96.231,-21.182 1.835,-9.171 -1.855,-24.695 -8.769,-31.225 -11.13011,-10.511336 -81.21136,-23.193419 -85.364,-24.463 -6.802,-2.077 -18.161,-2.883 -25.333,-2.884 -14.244,-10e-4 -28.514,0.328 -42.477,3.171 -2.789,0.568 -5.597,1.043 -8.382,1.638 -0.032,0.007 -1.859,0.387 -1.859,0.387 -8.651,1.906 -17.288,3.865 -25.729,6.585 -4.654,1.499 -9.394,4.582 -14.098,5.541 -4.688,0.955 -42.099063,11.950321 -43.527063,13.192321 -2.020706,6.972546 -2.414784,7.354565 -3.755956,13.513933 C 40.803914,90.71906 51.712,94.615 53.247,95.523 c 26.645,15.747 52.584,19.383 82.666,24.033 8.4297,1.20969 17.24924,3.81112 25.718,4.599 11.057,0.505 22.114,0.982 33.166,1.386 1.992,0.073 11.008,0.208 7.587,0.208 z"
       id="B1" />
    <text
       x="47.6674"
       y="141.01711"
       font-family="sans-serif"
       font-size="6px"
       fill="#000000"
       text-anchor="middle"
       transform="matrix(0.99423054,0.08744226,0.0353066,-0.83530014,25.408753,262.14343)"
       id="text1">B1</text>
  </g>
</svg>
