<?xml version="1.0" encoding="UTF-8"?>
<svg xmlns="http://www.w3.org/2000/svg" xmlns:ns2="http://www.inkscape.org/namespaces/inkscape" xmlns:sodipodi="http://sodipodi.sourceforge.net/DTD/sodipodi-0.dtd" width="34.21mm" height="89.82mm" viewBox="8.000 8.000 34.209 89.824" version="1.1" id="svg1" sodipodi:docname="LC3.svg" ns2:version="1.4 (86a8ad7, 2024-10-11)">
  <defs id="defs1" />
  <sodipodi:namedview id="namedview1" pagecolor="#ffffff" bordercolor="#666666" borderopacity="1.0" ns2:showpageshadow="2" ns2:pageopacity="0.0" ns2:pagecheckerboard="0" ns2:deskcolor="#d1d1d1" ns2:document-units="mm" ns2:zoom="5.3464568" ns2:cx="143.64654" ns2:cy="219.11708" ns2:window-width="3840" ns2:window-height="2054" ns2:window-x="-11" ns2:window-y="-11" ns2:window-maximized="1" ns2:current-layer="feather" />
  <g id="LC3" transform="matrix(0.98744493,0.15796368,0.15796368,-0.98744493,-747.79876,21.49221)" data-source="feathers-aggregate.svg">
    <path fill="none" stroke="#000000" stroke-width="0.5" d="M 779.843,57.438 C 777.654,53.945 772.14,44.09 766.78,45.596 c -19.08845,16.511544 -15.75061,63.99085 -11.80925,76.42965 0.87197,2.73702 3.54312,8.02683 5.54818,13.14577 7.146,-5.145 26.08207,-44.21442 26.52107,-54.22642 0.194,-4.421 -1.363,-8.467 -2.303,-12.706 -0.702,-3.167 -2.191,-6.134 -3.789,-8.938 -0.357,-0.628 -1.105,-1.863 -1.105,-1.863 z" id="LC3-outline" sodipodi:nodetypes="cccccccc" />
    <text x="22.6618" y="41.415298" font-family="sans-serif" font-size="6px" fill="#000000" text-anchor="middle" transform="matrix(0.98744491,0.15796368,0.15796368,-0.98744491,743.50065,117.26561)" id="LC3-label">LC3</text>
    <path style="fill:none;stroke:#000000;stroke-width:0.264595px;stroke-linecap:butt;stroke-linejoin:miter;stroke-opacity:1" d="m 24.523976,8.1522455 c 2.610568,36.5407565 0.536102,66.4828735 -6.2234,89.8263485" id="LC3-center-line" sodipodi:nodetypes="cc" transform="matrix(0.98744491,0.15796368,0.15796368,-0.98744491,735.0151,139.34742)" />
  </g>
</svg>
