<?xml version="1.0" encoding="UTF-8" standalone="no"?>
<svg
   width="35.39mm"
   height="90.16mm"
   viewBox="8.000 8.000 35.393 90.162"
   version="1.1"
   id="svg1"
   sodipodi:docname="LC4.svg"
   inkscape:version="1.4 (86a8ad7, 2024-10-11)"
   xmlns:inkscape="http://www.inkscape.org/namespaces/inkscape"
   xmlns:sodipodi="http://sodipodi.sourceforge.net/DTD/sodipodi-0.dtd"
   xmlns="http://www.w3.org/2000/svg"
   xmlns:svg="http://www.w3.org/2000/svg">
  <defs
     id="defs1" />
  <sodipodi:namedview
     id="namedview1"
     pagecolor="#ffffff"
     bordercolor="#666666"
     borderopacity="1.0"
     inkscape:showpageshadow="2"
     inkscape:pageopacity="0.0"
     inkscape:pagecheckerboard="0"
     inkscape:deskcolor="#d1d1d1"
     inkscape:document-units="mm"
     inkscape:zoom="5.3262947"
     inkscape:cx="66.932083"
     inkscape:cy="170.38111"
     inkscape:window-width="3840"
     inkscape:window-height="2054"
     inkscape:window-x="-11"
     inkscape:window-y="-11"
     inkscape:window-maximized="1"
     inkscape:current-layer="svg1" />
  <g
     id="feather"
     transform="matrix(0.99899821,-0.04475042,-0.04475042,-0.99899821,-795.05406,181.7434)"
     data-source="feathers-aggregate.svg">
    <path
       fill="none"
       stroke="#000000"
       stroke-width="0.5"
       d="m 821.62032,136.97693 c 0,0 11.26209,-10.27036 15.54876,-18.54282 C 844.69808,98.628112 846.695,85.147 835.563,65.602 830.69958,59.56543 822.20782,49.410025 815.177,47.048 c -3.124,-0.766 -5.569,15.923 -6.03,18.863 -0.148,0.945 -0.423,2.838 -0.423,2.838 -3.366,23.824 3.21978,53.58202 3.21978,53.58202 5.56118,8.16227 8.50397,12.73695 9.67654,14.64591 z"
       sodipodi:nodetypes="cccccccc"
       id="LC4" />
    <text
       x="26.884501"
       y="48.995098"
       font-family="sans-serif"
       font-size="6px"
       fill="#000000"
       text-anchor="middle"
       transform="matrix(0.99899819,-0.04475042,-0.04475042,-0.99899819,799.655,137.78911)"
       id="text1">LC4</text>
  </g>
</svg>
