<?xml version="1.0" encoding="UTF-8" standalone="no"?>
<svg
   width="62.06mm"
   height="134.88mm"
   viewBox="691.476 242.882 62.062 134.881"
   version="1.1"
   id="svg1"
   sodipodi:docname="MC2.svg"
   inkscape:version="1.4 (86a8ad7, 2024-10-11)"
   xmlns:inkscape="http://www.inkscape.org/namespaces/inkscape"
   xmlns:sodipodi="http://sodipodi.sourceforge.net/DTD/sodipodi-0.dtd"
   xmlns="http://www.w3.org/2000/svg"
   xmlns:svg="http://www.w3.org/2000/svg">
  <defs
     id="defs1" />
  <sodipodi:namedview
     id="namedview1"
     pagecolor="#ffffff"
     bordercolor="#666666"
     borderopacity="1.0"
     inkscape:showpageshadow="2"
     inkscape:pageopacity="0.0"
     inkscape:pagecheckerboard="0"
     inkscape:deskcolor="#d1d1d1"
     inkscape:document-units="mm"
     inkscape:zoom="3.5603405"
     inkscape:cx="117.4045"
     inkscape:cy="254.89135"
     inkscape:window-width="3840"
     inkscape:window-height="2054"
     inkscape:window-x="-11"
     inkscape:window-y="-11"
     inkscape:window-maximized="1"
     inkscape:current-layer="feather" />
  <g
     id="feather">
    <path
       id="MC2"
       fill="none"
       stroke="#000000"
       stroke-width="0.5"
       d="m 740.639,336.44 c 4.615,-23.857 12.322,-96.031 -31.071,-84.38 -8.663,2.326 -6.725,10.253 -7.975,17.039 -3.861,20.95 0.028,40.897 2.855,61.805 0.021,0.155 0.085,0.62 0.064,0.465 0.848,5.976 5.524,37.833 7.849,38.135 3.89813,-0.0376 12.95511,0.70483 16.98401,0.714 1.16026,0.003 5.08935,-14.76491 8.97199,-24.218 1.002,-2.44 1.51,-5.125 1.992,-7.712 0.114,-0.615 0.33,-1.848 0.33,-1.848 z"
       sodipodi:nodetypes="ccccccsccc" />
    <text
       x="722.01"
       y="292.20"
       font-family="sans-serif"
       font-size="6"
       fill="#000"
       text-anchor="middle"
       transform="rotate(180,722.01,290.10)"
       id="text1">MC2</text>
  </g>
</svg>
