<?xml version="1.0" encoding="UTF-8" standalone="no"?>
<svg
   width="94.58mm"
   height="468.27mm"
   viewBox="8.000 8.000 94.585 468.275"
   version="1.1"
   id="svg1"
   sodipodi:docname="P1.svg"
   inkscape:version="1.4 (86a8ad7, 2024-10-11)"
   xmlns:inkscape="http://www.inkscape.org/namespaces/inkscape"
   xmlns:sodipodi="http://sodipodi.sourceforge.net/DTD/sodipodi-0.dtd"
   xmlns="http://www.w3.org/2000/svg"
   xmlns:svg="http://www.w3.org/2000/svg">
  <defs
     id="defs1" />
  <sodipodi:namedview
     id="namedview1"
     pagecolor="#ffffff"
     bordercolor="#666666"
     borderopacity="1.0"
     inkscape:showpageshadow="2"
     inkscape:pageopacity="0.0"
     inkscape:pagecheckerboard="0"
     inkscape:deskcolor="#d1d1d1"
     inkscape:document-units="mm"
     inkscape:zoom="2.0510336"
     inkscape:cx="-15.11433"
     inkscape:cy="339.09732"
     inkscape:window-width="3840"
     inkscape:window-height="2054"
     inkscape:window-x="-11"
     inkscape:window-y="-11"
     inkscape:window-maximized="1"
     inkscape:current-layer="feather" />
  <g
     id="feather"
     transform="matrix(0.9988488464,0.042124949,0.05056826899,-1.199053253,-59.54274778,722.536588)"
     data-source="feathers-aggregate.svg">
    <path
       fill="none"
       stroke="#000000"
       stroke-width="0.5"
       d="m 136.298,492.601 c 8.373,-75.334 1.457,-125.499 -27.285,-195.33 -4.584,-11.137 -10.085,-22.207 -13.973,-33.555 -6.622,-19.328 -11.972,-37.842 -24.997,-54.001 -0.804,-0.997 -1.846,-2.49 -3.393,-1.779 -2.121,0.974 -2.165,5.799 -2.743,7.738 -12.506,41.976 -11.373,83.725 -11.373,127.354 0,0.467 0,1.867 0,1.4 0,15.427 -0.822,30.757 -1.253,46.16 -1.16,41.496 -15.901,114.1 -4.549,151.881 3.618,12.042 9.942,23.14 16.698,33.724 2.832,4.436 8.837,17.395 13.267,19.551 2.264,1.102 26.166,4.504 27.622,3.648 0.683,-0.401 21.715,-62.03 23.843,-68.504 3.885,-11.821 6.479,-24.557 7.972,-36.897 0.056,-0.463 0.219,-1.854 0.164,-1.39 z"
       id="P1" />
    <text
       x="95.335754"
       y="-606.0246"
       font-family="sans-serif"
       font-size="5.47767px"
       fill="#000000"
       text-anchor="middle"
       transform="matrix(1.0946707,0.0384578,0.0461661,-0.91189484,0,0)"
       id="feather-label"
       style="stroke-width:0.912946">P1</text>
    <path
       style="fill:none;stroke:#000000;stroke-width:0.264597px;stroke-linecap:butt;stroke-linejoin:miter;stroke-opacity:1"
       d="M 60.353752,9.0973376 C 69.330447,118.67381 47.043656,297.34944 18.265638,476.26956"
       id="center-line"
       sodipodi:nodetypes="cc"
       transform="matrix(0.99937498,0.03510988,0.04214714,-0.8325106,29.052683,603.60991)" />
  </g>
</svg>
