#VRML V2.0 utf8
# 3D model generated by easyeda2kicad.py (https://github.com/uPesy/easyeda2kicad.py)

Shape{
    appearance Appearance {
        material  Material 	{
            diffuseColor 0.8431372549019608 0.8156862745098039 0.7529411764705882
            specularColor 0.25098039215686274 0.24313725490196078 0.22745098039215686
            ambientIntensity 0.8167
            transparency 0.0
            shininess 0.5
        }
    }
    geometry IndexedFaceSet {
        ccw TRUE
        solid FALSE
        coord DEF co Coordinate {
            point [
                -0.6339 0.1496 0.063, -0.689 0.1496 0.063, -0.6339 0.1496 0.8504, -0.689 0.1496 0.9646, -0.5512 0.1496 0.8504, -0.2362 0.1496 0.8304, -0.2559 0.1496 0.8465, -0.1378 0.1496 0.8465, -0.5512 0.1496 0.0039, -0.5512 0.1496 0.122, -0.2559 0.1496 0.122, -0.1378 0.1496 0.122, -0.1575 0.1496 0.122, -0.1575 0.1496 0.8304, -0.2362 0.1496 0.122, 0.5512 0.1496 0.0039, 0.1378 0.1496 0.122, 0.2559 0.1496 0.122, 0.5512 0.1496 0.122, 0.689 0.1496 0.063, 0.6339 0.1496 0.063, 0.689 0.1496 0.9646, 0.6339 0.1496 0.8504, 0.5512 0.1496 0.8504, 0.1378 0.1496 0.8465, -0.5512 0.1496 0.8465, 0.2559 0.1496 0.8465, 0.2362 0.1496 0.8304, 0.1575 0.1496 0.8304, 0.2362 0.1496 0.122, 0.1575 0.1496 0.122, 0.5512 0.1496 0.8465, -0.5512 0.3373 0.8426, -0.5512 0.3277 0.8465, -0.5512 0.3858 0.8465, -0.5512 0.3799 0.7892, -0.5512 0.3741 0.8058, -0.5512 0.3647 0.8207, -0.5512 0.3522 0.8332, -0.5512 0.3819 0.7717, -0.5512 0.3858 0.122, -0.5512 0.3819 0.122, -0.5512 -1.2819 0.063, -0.5512 -1.2874 0.063, -0.6339 -1.2819 0.063, -0.689 -1.2874 0.063, -0.2369 -0.1063 0.2642, -0.2369 -0.1063 0.122, -0.172 -0.1063 0.122, -0.2217 -0.1063 0.3831, -0.172 -0.1063 0.3838, -0.2369 -0.1063 0.3838, -0.1771 -0.1063 0.2779, -0.1771 -0.1063 0.265, -0.172 -0.1063 0.2642, -0.2369 -0.1063 0.265, -0.2376 -0.1063 0.265, -0.4921 -0.1063 0.3838, -0.2376 -0.1063 0.3831, -0.2369 -0.1063 0.3831, 0.2233 -0.1063 0.265, 0.2114 -0.1063 0.2981, 0.1626 -0.1063 0.2981, 0.1458 -0.1063 0.3838, 0.1787 -0.1063 0.3831, 0.1945 -0.1063 0.3831, 0.134 -0.1063 0.265, 0.1458 -0.1063 0.296, 0.1297 -0.1063 0.3838, -0.1575 -0.1063 0.6447, -0.1575 -0.1063 0.497, -0.0676 -0.1063 0.4408, -0.0676 -0.1063 0.8465, -0.172 -0.1063 0.8465, -0.172 -0.1063 0.6447, -0.172 -0.1063 0.4408, -0.172 -0.1063 0.497, -0.2369 -0.1063 0.4408, -0.2362 -0.1063 0.6447, -0.2369 -0.1063 0.8465, -0.2362 -0.1063 0.497, -0.5709 -0.1063 0.4408, -0.4921 -0.1063 0.4134, -0.5709 -0.1063 0.4134, -0.5709 -0.1063 0.6496, -0.4921 -0.1063 0.6496, -0.4921 -0.1063 0.8465, 0.2362 -0.1063 0.497, 0.1575 -0.1063 0.497, 0.1458 -0.1063 0.4408, 0.1575 -0.1063 0.6447, 0.4921 -0.1063 0.3838, 0.4921 -0.1063 0.4134, 0.5709 -0.1063 0.4408, 0.5709 -0.1063 0.4134, 0.4921 -0.1063 0.122, 0.4921 -0.1063 0.2642, 0.1458 -0.1063 0.2642, -0.4921 -0.1063 0.122, -0.4921 -0.1063 0.2642, -0.0676 -0.1063 0.2642, -0.0676 -0.1063 0.3838, -0.0791 -0.1063 0.284, -0.0791 -0.1063 0.2711, -0.0917 -0.1063 0.2659, -0.1037 -0.1063 0.2642, -0.0965 -0.1063 0.3838, -0.0928 -0.1063 0.3835, -0.0791 -0.1063 0.3798, -0.0791 -0.1063 0.364, -0.0924 -0.1063 0.3697, -0.0813 -0.1063 0.2829, -0.1068 -0.1063 0.3715, -0.1184 -0.1063 0.3702, -0.1273 -0.1063 0.367, -0.1354 -0.1063 0.3616, -0.1426 -0.1063 0.3537, -0.1512 -0.1063 0.3227, -0.15 -0.1063 0.31, -0.1468 -0.1063 0.2998, -0.1205 -0.1063 0.2777, -0.1095 -0.1063 0.2765, -0.1291 -0.1063 0.2809, -0.1363 -0.1063 0.2858, -0.1419 -0.1063 0.2916, -0.0938 -0.1063 0.2782, -0.1474 -0.1063 0.3446, -0.1506 -0.1063 0.3319, -0.1538 -0.1063 0.363, -0.1432 -0.1063 0.3732, -0.1186 -0.1063 0.2642, -0.1262 -0.1063 0.265, -0.1376 -0.1063 0.269, -0.1471 -0.1063 0.275, -0.167 -0.1063 0.3218, -0.1653 -0.1063 0.3386, -0.1608 -0.1063 0.352, -0.132 -0.1063 0.3797, -0.1188 -0.1063 0.3835, -0.1158 -0.1063 0.3838, -0.156 -0.1063 0.2844, -0.1623 -0.1063 0.2956, -0.1659 -0.1063 0.3081, -0.2217 -0.1063 0.2779, -0.1069 -0.1063 0.3845, -0.1084 -0.1063 0.2636, -0.1116 -0.1063 0.2635, -0.0676 -0.1063 0.122, 0.0188 -0.1063 0.4408, 0.0188 -0.1063 0.8465, 0.0188 -0.1063 0.3838, 0.0044 -0.1063 0.3831, 0.0044 -0.1063 0.3701, 0.0073 -0.1063 0.2779, 0.0188 -0.1063 0.2642, 0.0073 -0.1063 0.265, -0.0561 -0.1063 0.265, -0.0561 -0.1063 0.3831, -0.0402 -0.1063 0.3182, -0.0402 -0.1063 0.2779, 0.0015 -0.1063 0.3182, 0.0015 -0.1063 0.3312, -0.0402 -0.1063 0.3312, -0.0402 -0.1063 0.3701, 0.1297 -0.1063 0.4408, 0.0637 -0.1063 0.3831, 0.0807 -0.1063 0.3812, 0.1127 -0.1063 0.2868, 0.103 -0.1063 0.2774, 0.1297 -0.1063 0.2642, 0.0907 -0.1063 0.2703, 0.0945 -0.1063 0.3764, 0.1074 -0.1063 0.3678, 0.1075 -0.1063 0.3677, 0.1254 -0.1063 0.3255, 0.1237 -0.1063 0.3097, 0.1195 -0.1063 0.2973, 0.0771 -0.1063 0.2662, 0.0624 -0.1063 0.265, 0.0303 -0.1063 0.265, 0.0303 -0.1063 0.3831, 0.1159 -0.1063 0.3584, 0.1214 -0.1063 0.3482, 0.1245 -0.1063 0.3366, 0.1513 -0.1063 0.265, 0.1458 -0.1063 0.265, 0.5709 -0.1063 0.6496, 0.4921 -0.1063 0.6496, 0.2362 -0.1063 0.6447, 0.4921 -0.1063 0.8465, 0.1458 -0.1063 0.8465, 0.1297 -0.1063 0.8465, 0.2406 -0.1063 0.265, 0.1458 -0.1063 0.122, 0.1297 -0.1063 0.122, 0.0188 -0.1063 0.122, 0.6299 -1.2874 0.3543, 0.5512 -1.2874 0.3543, 0.5512 -1.2874 0.063, -0.6299 -1.2874 0.7087, -0.5512 -1.2874 0.7087, -0.5512 -1.2874 0.9055, -0.5512 -1.2874 0.3543, -0.6299 -1.2874 0.3543, -0.689 -1.2874 0.9646, 0.689 -1.2874 0.9646, 0.5512 -1.2874 0.9055, 0.5512 -1.2874 0.7087, 0.6299 -1.2874 0.7087, 0.689 -1.2874 0.063, -0.2559 0.3268 0.8465, -0.315 0.3858 0.8465, -0.1378 0.3268 0.8465, -0.0787 0.3858 0.8465, 0.0787 0.3858 0.8465, 0.1378 0.3268 0.8465, -0.315 0.3858 0.122, -0.2559 0.3268 0.122, 0.0787 0.3858 0.122, 0.1378 0.3268 0.122, -0.0787 0.3858 0.122, -0.1378 0.3268 0.122, -0.5512 -1.2293 0.0039, 0.5512 -1.2293 0.0039, -0.5512 -1.2874 0.0039, 0.5512 -1.2874 0.0039, -0.4921 -1.1251 0.4134, -0.4921 -1.1251 0.122, -0.5709 -1.1251 0.4134, -0.5709 -1.1251 0.6496, -0.4921 -1.1251 0.6496, -0.4921 -1.1251 0.8465, 0.4921 -1.1251 0.8465, 0.4921 -1.1251 0.6496, 0.5709 -1.1251 0.6496, 0.5709 -1.1251 0.4134, 0.4921 -1.1251 0.4134, 0.4921 -1.1251 0.122, 0.5512 0.3858 0.8465, 0.5512 0.3277 0.8465, 0.5512 0.3373 0.8426, 0.5512 0.3522 0.8332, 0.5512 0.3647 0.8207, 0.5512 0.3741 0.8058, 0.5512 0.3819 0.122, 0.5512 0.3858 0.122, 0.5512 0.3819 0.7717, 0.5512 0.3799 0.7892, 0.315 0.3858 0.8465, 0.2559 0.3268 0.8465, 0.315 0.3858 0.122, 0.2559 0.3268 0.122
            ]
        }
        coordIndex [
            0,1,2,-1,2,1,3,-1,2,3,4,-1,5,6,7,-1,8,9,10,-1,11,12,7,-1,7,12,13,-1,7,13,5,-1,6,5,10,-1,10,5,14,-1,10,14,8,-1,8,14,12,-1,8,12,15,-1,15,12,11,-1,15,11,16,-1,17,18,15,-1,19,20,21,-1,21,20,22,-1,22,23,21,-1,21,23,24,-1,21,24,3,-1,3,24,7,-1,3,7,4,-1,4,7,6,-1,4,6,25,-1,26,27,28,-1,27,26,29,-1,26,17,29,-1,29,17,15,-1,29,15,30,-1,30,15,16,-1,30,16,28,-1,28,16,24,-1,28,24,26,-1,26,24,23,-1,26,23,31,-1,32,33,34,-1,35,36,34,-1,36,37,34,-1,34,37,38,-1,34,38,32,-1,35,34,39,-1,39,34,40,-1,39,40,41,-1,42,43,44,-1,44,43,45,-1,44,45,0,-1,0,45,1,-1,46,47,48,-1,49,50,51,-1,52,53,54,-1,46,55,56,-1,57,58,51,-1,51,58,59,-1,51,59,49,-1,60,61,62,-1,63,64,65,-1,66,67,68,-1,69,70,71,-1,72,73,74,-1,71,70,75,-1,75,70,76,-1,75,76,77,-1,74,73,78,-1,73,79,78,-1,78,79,77,-1,78,77,80,-1,80,77,76,-1,77,81,82,-1,82,81,83,-1,84,81,85,-1,85,81,77,-1,85,77,86,-1,86,77,79,-1,87,88,89,-1,89,88,90,-1,91,92,89,-1,87,89,93,-1,93,89,92,-1,93,92,94,-1,95,96,97,-1,98,47,99,-1,99,47,46,-1,99,46,57,-1,57,46,56,-1,57,56,58,-1,100,101,102,-1,102,103,100,-1,100,103,104,-1,100,104,105,-1,101,106,107,-1,107,108,101,-1,101,108,109,-1,101,109,102,-1,102,109,110,-1,102,110,111,-1,111,110,112,-1,111,112,113,-1,113,114,111,-1,111,114,115,-1,111,115,116,-1,117,118,111,-1,111,118,119,-1,120,121,122,-1,122,121,123,-1,119,124,111,-1,111,124,123,-1,111,123,125,-1,125,123,121,-1,116,126,111,-1,111,126,127,-1,111,127,117,-1,50,128,129,-1,130,131,54,-1,54,131,132,-1,54,132,133,-1,134,135,50,-1,50,135,136,-1,50,136,128,-1,129,137,50,-1,50,137,138,-1,50,138,139,-1,133,140,54,-1,54,140,141,-1,54,141,142,-1,142,134,54,-1,54,134,50,-1,54,50,52,-1,52,50,49,-1,52,49,143,-1,144,71,139,-1,139,71,75,-1,139,75,50,-1,50,75,77,-1,50,77,51,-1,51,77,82,-1,51,82,57,-1,145,146,147,-1,147,146,130,-1,147,130,48,-1,48,130,54,-1,48,54,46,-1,46,54,53,-1,46,53,55,-1,148,149,72,-1,144,106,71,-1,71,106,101,-1,71,101,150,-1,150,101,151,-1,151,152,150,-1,150,152,153,-1,150,153,154,-1,154,153,155,-1,154,155,100,-1,100,155,156,-1,100,156,101,-1,101,156,157,-1,101,157,151,-1,158,159,160,-1,160,159,153,-1,160,153,161,-1,161,153,152,-1,161,152,162,-1,162,152,163,-1,149,148,164,-1,164,148,68,-1,164,68,63,-1,63,68,67,-1,63,67,64,-1,74,69,72,-1,72,69,71,-1,72,71,148,-1,148,71,150,-1,148,150,68,-1,68,150,165,-1,68,165,166,-1,167,168,169,-1,169,168,170,-1,166,171,68,-1,68,171,172,-1,68,172,173,-1,174,175,169,-1,169,175,176,-1,169,176,167,-1,170,177,169,-1,169,177,178,-1,169,178,154,-1,154,178,179,-1,154,179,150,-1,150,179,180,-1,150,180,165,-1,173,181,68,-1,68,181,182,-1,68,182,183,-1,184,185,97,-1,97,185,66,-1,97,66,169,-1,169,66,68,-1,169,68,174,-1,174,68,183,-1,93,186,87,-1,87,186,187,-1,87,187,188,-1,188,187,189,-1,188,189,90,-1,90,189,190,-1,90,190,89,-1,89,190,191,-1,62,184,60,-1,60,184,97,-1,60,97,192,-1,192,97,96,-1,192,96,65,-1,65,96,91,-1,65,91,63,-1,63,91,89,-1,63,89,164,-1,164,89,191,-1,164,191,149,-1,95,97,193,-1,193,97,169,-1,193,169,194,-1,194,169,154,-1,194,154,195,-1,195,154,100,-1,195,100,147,-1,147,100,105,-1,147,105,145,-1,196,197,198,-1,199,200,201,-1,43,202,45,-1,45,202,203,-1,45,203,204,-1,203,199,204,-1,204,199,201,-1,204,201,205,-1,205,201,206,-1,205,206,207,-1,207,208,205,-1,205,208,196,-1,205,196,209,-1,209,196,198,-1,25,6,33,-1,33,6,210,-1,33,210,34,-1,34,210,211,-1,212,7,213,-1,213,7,24,-1,213,24,214,-1,214,24,215,-1,41,40,216,-1,41,216,9,-1,9,216,217,-1,9,217,10,-1,218,219,220,-1,220,219,16,-1,220,16,221,-1,221,16,11,-1,216,40,211,-1,211,40,34,-1,213,214,220,-1,220,214,218,-1,19,21,209,-1,209,21,205,-1,45,204,1,-1,1,204,3,-1,204,205,3,-1,3,205,21,-1,8,15,222,-1,222,15,223,-1,222,223,224,-1,224,223,225,-1,198,43,225,-1,225,43,224,-1,82,226,57,-1,57,226,227,-1,57,227,99,-1,99,227,98,-1,226,82,228,-1,228,82,83,-1,84,229,81,-1,81,229,228,-1,81,228,83,-1,229,84,230,-1,230,84,85,-1,230,85,231,-1,231,85,86,-1,231,86,79,-1,79,73,231,-1,231,73,72,-1,231,72,232,-1,232,72,149,-1,149,191,232,-1,232,191,190,-1,232,190,189,-1,232,189,233,-1,233,189,187,-1,233,187,234,-1,234,187,186,-1,94,235,93,-1,93,235,234,-1,93,234,186,-1,235,94,236,-1,236,94,92,-1,95,237,96,-1,96,237,236,-1,96,236,91,-1,91,236,92,-1,237,95,193,-1,193,194,237,-1,237,194,195,-1,237,195,227,-1,227,195,147,-1,147,48,227,-1,227,48,47,-1,227,47,98,-1,206,232,207,-1,207,232,233,-1,201,231,206,-1,206,231,232,-1,234,208,233,-1,233,208,207,-1,200,230,201,-1,201,230,231,-1,235,196,234,-1,234,196,208,-1,199,229,200,-1,200,229,230,-1,236,197,235,-1,235,197,196,-1,203,228,199,-1,199,228,229,-1,237,198,236,-1,236,198,197,-1,202,226,203,-1,203,226,228,-1,227,43,237,-1,237,43,198,-1,43,227,202,-1,202,227,226,-1,238,239,240,-1,240,241,238,-1,238,241,242,-1,238,242,243,-1,244,245,246,-1,246,245,238,-1,246,238,247,-1,247,238,243,-1,238,248,239,-1,239,248,249,-1,239,249,31,-1,31,249,26,-1,250,245,244,-1,250,244,251,-1,251,244,18,-1,251,18,17,-1,248,238,250,-1,250,238,245,-1,215,24,219,-1,219,24,16,-1,251,17,249,-1,249,17,26,-1,210,6,217,-1,217,6,10,-1,221,11,212,-1,212,11,7,-1,211,210,216,-1,216,210,217,-1,220,221,213,-1,213,221,212,-1,214,215,218,-1,218,215,219,-1,250,251,248,-1,248,251,249,-1,
        ]
    }
}
Shape{
    appearance Appearance {
        material  Material 	{
            diffuseColor 0.8509803921568627 0.8509803921568627 0.8509803921568627
            specularColor 0.4235294117647059 0.4235294117647059 0.4235294117647059
            ambientIntensity 0.851
            transparency 0.0
            shininess 0.5
        }
    }
    geometry IndexedFaceSet {
        ccw TRUE
        solid FALSE
        coord DEF co Coordinate {
            point [
                0.1575 0.233 0.8304, 0.2362 0.233 0.8304, 0.2362 0.2534 0.8277, 0.1575 0.2534 0.8277, 0.2362 0.2724 0.8198, 0.1575 0.2724 0.8198, 0.2362 0.2887 0.8073, 0.1575 0.2887 0.8073, 0.2362 0.3012 0.791, 0.1575 0.3012 0.791, 0.2362 0.3091 0.772, 0.1575 0.3091 0.772, 0.2362 0.3118 0.7516, 0.1575 0.3118 0.7516, 0.2362 0.3118 0.6527, 0.1575 0.3118 0.6527, 0.2362 0.3386 0.6532, 0.1575 0.3386 0.6532, 0.2362 0.3386 0.4921, 0.1575 0.3386 0.4921, 0.2362 0.3118 0.4921, 0.1575 0.3118 0.4921, 0.2362 0.3118 0.1881, 0.1575 0.3118 0.1881, 0.2362 0.4096 0.1512, 0.1575 0.4096 0.1512, 0.2362 0.5662 0.0591, 0.1575 0.5662 0.0591, 0.2362 0.6811 0.0591, 0.1575 0.6811 0.0591, 0.2362 0.6811 0.0, 0.1575 0.6811 0.0, 0.2362 0.357 0.0, 0.1575 0.357 0.0, 0.1575 0.1496 0.122, 0.1575 0.1496 0.8304, 0.2362 0.1496 0.122, 0.2362 0.1496 0.8304, 0.2362 -0.8214 0.631, 0.2362 -0.1063 0.6447, 0.1575 -0.8214 0.631, 0.1575 -0.1063 0.6447, 0.1575 -0.8214 0.5107, 0.1575 -0.1063 0.497, 0.2362 -0.8214 0.5107, 0.2362 -0.1063 0.497, 0.1575 -0.8364 0.513, 0.1575 -0.8504 0.519, 0.1575 -0.8793 0.5697, 0.1575 -0.8793 0.572, 0.1575 -0.8773 0.5871, 0.1575 -0.8716 0.6012, 0.1575 -0.8364 0.6288, 0.1575 -0.8624 0.6133, 0.1575 -0.8504 0.6227, 0.1575 -0.8624 0.5284, 0.1575 -0.8716 0.5405, 0.1575 -0.8773 0.5546, 0.2362 -0.8793 0.572, 0.2362 -0.8793 0.5697, 0.2362 -0.8364 0.6288, 0.2362 -0.8504 0.6227, 0.2362 -0.8624 0.6133, 0.2362 -0.8716 0.6012, 0.2362 -0.8773 0.5871, 0.2362 -0.8773 0.5546, 0.2362 -0.8716 0.5405, 0.2362 -0.8624 0.5284, 0.2362 -0.8504 0.519, 0.2362 -0.8364 0.513, -0.2362 0.233 0.8304, -0.1575 0.233 0.8304, -0.1575 0.2534 0.8277, -0.2362 0.2534 0.8277, -0.1575 0.2724 0.8198, -0.2362 0.2724 0.8198, -0.1575 0.2887 0.8073, -0.2362 0.2887 0.8073, -0.1575 0.3012 0.791, -0.2362 0.3012 0.791, -0.1575 0.3091 0.772, -0.2362 0.3091 0.772, -0.1575 0.3118 0.7516, -0.2362 0.3118 0.7516, -0.1575 0.3118 0.6527, -0.2362 0.3118 0.6527, -0.1575 0.3386 0.6532, -0.2362 0.3386 0.6532, -0.1575 0.3386 0.4921, -0.2362 0.3386 0.4921, -0.1575 0.3118 0.4921, -0.2362 0.3118 0.4921, -0.1575 0.3118 0.1881, -0.2362 0.3118 0.1881, -0.1575 0.4096 0.1512, -0.2362 0.4096 0.1512, -0.1575 0.5662 0.0591, -0.2362 0.5662 0.0591, -0.1575 0.6811 0.0591, -0.2362 0.6811 0.0591, -0.1575 0.6811 0.0, -0.2362 0.6811 0.0, -0.1575 0.357 0.0, -0.2362 0.357 0.0, -0.2362 0.1496 0.122, -0.2362 0.1496 0.8304, -0.1575 0.1496 0.122, -0.1575 0.1496 0.8304, -0.2362 -0.1063 0.6447, -0.2362 -0.8214 0.631, -0.172 -0.1063 0.6447, -0.1575 -0.8214 0.631, -0.1575 -0.1063 0.6447, -0.1575 -0.1063 0.497, -0.1575 -0.8214 0.5107, -0.172 -0.1063 0.497, -0.2362 -0.8214 0.5107, -0.2362 -0.1063 0.497, -0.2362 -0.8364 0.513, -0.2362 -0.8504 0.519, -0.2362 -0.8793 0.5697, -0.2362 -0.8793 0.572, -0.2362 -0.8773 0.5871, -0.2362 -0.8716 0.6012, -0.2362 -0.8364 0.6288, -0.2362 -0.8624 0.6133, -0.2362 -0.8504 0.6227, -0.2362 -0.8624 0.5284, -0.2362 -0.8716 0.5405, -0.2362 -0.8773 0.5546, -0.1575 -0.8793 0.572, -0.1575 -0.8793 0.5697, -0.1575 -0.8364 0.6288, -0.1575 -0.8504 0.6227, -0.1575 -0.8624 0.6133, -0.1575 -0.8716 0.6012, -0.1575 -0.8773 0.5871, -0.1575 -0.8773 0.5546, -0.1575 -0.8716 0.5405, -0.1575 -0.8624 0.5284, -0.1575 -0.8504 0.519, -0.1575 -0.8364 0.513
            ]
        }
        coordIndex [
            0,1,2,-1,0,2,3,-1,3,2,4,-1,3,4,5,-1,5,4,6,-1,5,6,7,-1,7,6,8,-1,7,8,9,-1,9,8,10,-1,9,10,11,-1,11,10,12,-1,11,12,13,-1,14,15,12,-1,12,15,13,-1,16,17,14,-1,14,17,15,-1,18,19,16,-1,16,19,17,-1,20,21,18,-1,18,21,19,-1,22,23,20,-1,20,23,21,-1,24,25,22,-1,22,25,23,-1,26,27,24,-1,24,27,25,-1,28,29,26,-1,26,29,27,-1,30,31,28,-1,28,31,29,-1,32,33,30,-1,30,33,31,-1,11,13,0,-1,5,7,9,-1,13,15,0,-1,0,15,34,-1,0,34,35,-1,29,31,27,-1,27,31,33,-1,11,0,9,-1,9,0,3,-1,9,3,5,-1,17,19,15,-1,15,19,21,-1,15,21,34,-1,34,21,23,-1,34,23,33,-1,33,23,25,-1,33,25,27,-1,18,16,20,-1,20,16,14,-1,22,20,36,-1,36,20,14,-1,36,14,37,-1,37,14,12,-1,37,12,1,-1,8,6,4,-1,22,36,24,-1,24,36,32,-1,24,32,26,-1,26,32,30,-1,26,30,28,-1,12,10,1,-1,1,10,8,-1,1,8,2,-1,2,8,4,-1,36,34,32,-1,32,34,33,-1,1,0,37,-1,37,0,35,-1,38,39,40,-1,40,39,41,-1,42,43,44,-1,44,43,45,-1,40,41,43,-1,46,47,48,-1,49,50,51,-1,52,40,49,-1,49,40,43,-1,49,43,48,-1,48,43,42,-1,48,42,46,-1,51,53,49,-1,49,53,54,-1,49,54,52,-1,47,55,48,-1,48,55,56,-1,48,56,57,-1,39,58,45,-1,45,58,59,-1,39,38,58,-1,58,38,60,-1,58,60,61,-1,61,62,58,-1,58,62,63,-1,58,63,64,-1,65,66,59,-1,59,66,67,-1,59,67,68,-1,68,69,59,-1,59,69,44,-1,59,44,45,-1,59,58,48,-1,48,58,49,-1,42,44,69,-1,42,69,46,-1,46,69,68,-1,46,68,47,-1,47,68,67,-1,47,67,55,-1,55,67,66,-1,55,66,56,-1,56,66,65,-1,56,65,57,-1,57,65,59,-1,57,59,48,-1,49,58,64,-1,49,64,50,-1,50,64,63,-1,50,63,51,-1,51,63,62,-1,51,62,53,-1,53,62,61,-1,53,61,54,-1,54,61,60,-1,54,60,52,-1,52,60,38,-1,52,38,40,-1,70,71,72,-1,70,72,73,-1,73,72,74,-1,73,74,75,-1,75,74,76,-1,75,76,77,-1,77,76,78,-1,77,78,79,-1,79,78,80,-1,79,80,81,-1,81,80,82,-1,81,82,83,-1,84,85,82,-1,82,85,83,-1,86,87,84,-1,84,87,85,-1,88,89,86,-1,86,89,87,-1,90,91,88,-1,88,91,89,-1,92,93,90,-1,90,93,91,-1,94,95,92,-1,92,95,93,-1,96,97,94,-1,94,97,95,-1,98,99,96,-1,96,99,97,-1,100,101,98,-1,98,101,99,-1,102,103,100,-1,100,103,101,-1,81,83,70,-1,75,77,79,-1,83,85,70,-1,70,85,104,-1,70,104,105,-1,99,101,97,-1,97,101,103,-1,81,70,79,-1,79,70,73,-1,79,73,75,-1,87,89,85,-1,85,89,91,-1,85,91,104,-1,104,91,93,-1,104,93,103,-1,103,93,95,-1,103,95,97,-1,88,86,90,-1,90,86,84,-1,92,90,106,-1,106,90,84,-1,106,84,107,-1,107,84,82,-1,107,82,71,-1,78,76,74,-1,92,106,94,-1,94,106,102,-1,94,102,96,-1,96,102,100,-1,96,100,98,-1,82,80,71,-1,71,80,78,-1,71,78,72,-1,72,78,74,-1,106,104,102,-1,102,104,103,-1,71,70,107,-1,107,70,105,-1,108,109,110,-1,110,109,111,-1,110,111,112,-1,113,114,115,-1,115,114,116,-1,115,116,117,-1,109,108,117,-1,118,119,120,-1,121,122,123,-1,124,109,121,-1,121,109,117,-1,121,117,120,-1,120,117,116,-1,120,116,118,-1,123,125,121,-1,121,125,126,-1,121,126,124,-1,119,127,120,-1,120,127,128,-1,120,128,129,-1,112,130,113,-1,113,130,131,-1,112,111,130,-1,130,111,132,-1,130,132,133,-1,133,134,130,-1,130,134,135,-1,130,135,136,-1,137,138,131,-1,131,138,139,-1,131,139,140,-1,140,141,131,-1,131,141,114,-1,131,114,113,-1,131,130,120,-1,120,130,121,-1,116,114,141,-1,116,141,118,-1,118,141,140,-1,118,140,119,-1,119,140,139,-1,119,139,127,-1,127,139,138,-1,127,138,128,-1,128,138,137,-1,128,137,129,-1,129,137,131,-1,129,131,120,-1,121,130,136,-1,121,136,122,-1,122,136,135,-1,122,135,123,-1,123,135,134,-1,123,134,125,-1,125,134,133,-1,125,133,126,-1,126,133,132,-1,126,132,124,-1,124,132,111,-1,124,111,109,-1,
        ]
    }
}
Shape{
    appearance Appearance {
        material  Material 	{
            diffuseColor 0.8431372549019608 0.8156862745098039 0.7529411764705882
            specularColor 0.25098039215686274 0.24313725490196078 0.22745098039215686
            ambientIntensity 0.8167
            transparency 0.0
            shininess 0.5
        }
    }
    geometry IndexedFaceSet {
        ccw TRUE
        solid FALSE
        coord DEF co Coordinate {
            point [
                -0.5512 -1.2874 0.063, -0.5512 -1.2819 0.063, -0.5512 -1.2874 0.0039, -0.5512 -1.2763 0.0459, -0.5512 -1.267 0.0306, -0.5512 -1.2545 0.0177, -0.5512 -1.2394 0.0081, -0.5512 -1.2293 0.0039, 0.5512 -1.2874 0.063, 0.5512 -1.2819 0.063, 0.6339 -1.2819 0.063, 0.6339 0.1496 0.063, 0.689 0.1496 0.063, 0.689 -1.2874 0.063, 0.5512 -1.2545 0.0177, 0.5512 -1.2874 0.0039, 0.5512 -1.2394 0.0081, 0.5512 -1.2293 0.0039, 0.5512 -1.2763 0.0459, 0.5512 -1.267 0.0306
            ]
        }
        coordIndex [
            0,1,2,-1,2,1,3,-1,2,3,4,-1,4,5,2,-1,2,5,6,-1,2,6,7,-1,8,9,10,-1,11,12,10,-1,10,12,13,-1,10,13,8,-1,14,15,16,-1,16,15,17,-1,9,8,18,-1,18,8,15,-1,18,15,19,-1,19,15,14,-1,
        ]
    }
}
Shape{
    appearance Appearance {
        material  Material 	{
            diffuseColor 0.8509803921568627 0.8509803921568627 0.8509803921568627
            specularColor 0.4235294117647059 0.4235294117647059 0.4235294117647059
            ambientIntensity 0.851
            transparency 0.0
            shininess 0.5
        }
    }
    geometry IndexedFaceSet {
        ccw TRUE
        solid FALSE
        coord DEF co Coordinate {
            point [
                0.5512 0.3207 0.8484, 0.5512 0.3277 0.8465, 0.5512 0.3031 0.8504, 0.5512 0.1496 0.8465, 0.5512 0.1496 0.8504, 0.6339 -1.2819 0.063, 0.5512 -1.2819 0.063, 0.5512 -1.2763 0.0459, 0.6339 -1.2763 0.0459, 0.5512 -1.267 0.0306, 0.6339 -1.267 0.0306, 0.5512 -1.2545 0.0177, 0.6339 -1.2545 0.0177, 0.5512 -1.2394 0.0081, 0.6339 -1.2394 0.0081, 0.5512 -1.2293 0.0039, 0.6339 -1.2225 0.002, 0.5512 -1.2225 0.002, 0.5512 -1.2047 0.0, 0.6339 -1.2047 0.0, 0.6339 0.3031 0.0, 0.5512 0.3031 0.0, 0.5512 0.3207 0.002, 0.6339 0.3207 0.002, 0.5512 0.3373 0.0078, 0.6339 0.3373 0.0078, 0.5512 0.3522 0.0172, 0.6339 0.3522 0.0172, 0.5512 0.3647 0.0296, 0.6339 0.3647 0.0296, 0.5512 0.3741 0.0446, 0.6339 0.3741 0.0446, 0.5512 0.3799 0.0612, 0.6339 0.3799 0.0612, 0.5512 0.3819 0.0787, 0.6339 0.3819 0.0787, 0.5512 0.3819 0.7717, 0.6339 0.3819 0.7717, 0.5512 0.3819 0.122, 0.5512 0.3799 0.7892, 0.6339 0.3799 0.7892, 0.5512 0.3741 0.8058, 0.6339 0.3741 0.8058, 0.5512 0.3647 0.8207, 0.6339 0.3647 0.8207, 0.5512 0.3522 0.8332, 0.6339 0.3522 0.8332, 0.5512 0.3373 0.8426, 0.6339 0.3373 0.8426, 0.6339 0.3207 0.8484, 0.6339 0.3031 0.8504, 0.6339 0.1496 0.8504, 0.6339 0.1496 0.063, 0.5512 0.1496 0.122, 0.5512 0.1496 0.0039
            ]
        }
        coordIndex [
            0,1,2,-1,2,1,3,-1,2,3,4,-1,5,6,7,-1,5,7,8,-1,8,7,9,-1,8,9,10,-1,10,9,11,-1,10,11,12,-1,12,11,13,-1,12,13,14,-1,14,13,15,-1,14,15,16,-1,15,17,16,-1,16,17,18,-1,16,18,19,-1,20,19,21,-1,21,19,18,-1,20,21,22,-1,20,22,23,-1,23,22,24,-1,23,24,25,-1,25,24,26,-1,25,26,27,-1,27,26,28,-1,27,28,29,-1,29,28,30,-1,29,30,31,-1,31,30,32,-1,31,32,33,-1,33,32,34,-1,33,34,35,-1,36,37,38,-1,38,37,35,-1,38,35,34,-1,37,36,39,-1,37,39,40,-1,40,39,41,-1,40,41,42,-1,42,41,43,-1,42,43,44,-1,44,43,45,-1,44,45,46,-1,46,45,47,-1,46,47,48,-1,48,47,1,-1,48,1,49,-1,1,0,49,-1,49,0,2,-1,49,2,50,-1,51,50,4,-1,4,50,2,-1,19,20,52,-1,33,35,52,-1,52,35,51,-1,51,35,37,-1,51,37,50,-1,20,23,52,-1,52,23,25,-1,52,25,27,-1,52,5,19,-1,19,5,8,-1,19,8,10,-1,10,12,19,-1,19,12,14,-1,19,14,16,-1,27,29,52,-1,52,29,31,-1,52,31,33,-1,48,42,46,-1,46,42,44,-1,37,40,50,-1,50,40,42,-1,50,42,49,-1,49,42,48,-1,38,34,53,-1,53,34,21,-1,53,21,54,-1,54,21,18,-1,54,18,15,-1,15,18,17,-1,24,30,26,-1,26,30,28,-1,34,32,21,-1,21,32,30,-1,21,30,22,-1,22,30,24,-1,
        ]
    }
}
Shape{
    appearance Appearance {
        material  Material 	{
            diffuseColor 0.4392156862745098 0.4392156862745098 0.4392156862745098
            specularColor 0.2196078431372549 0.2196078431372549 0.2196078431372549
            ambientIntensity 0.4392
            transparency 0.0
            shininess 0.5
        }
    }
    geometry IndexedFaceSet {
        ccw TRUE
        solid FALSE
        coord DEF co Coordinate {
            point [
                0.1945 -0.1024 0.3831, 0.2406 -0.1024 0.265, 0.1945 -0.1063 0.3831, 0.2406 -0.1063 0.265, 0.2233 -0.1024 0.265, 0.2233 -0.1063 0.265, 0.2114 -0.1024 0.2981, 0.2114 -0.1063 0.2981, 0.1626 -0.1024 0.2981, 0.1626 -0.1063 0.2981, 0.1513 -0.1024 0.265, 0.1513 -0.1063 0.265, 0.134 -0.1024 0.265, 0.134 -0.1063 0.265, 0.1458 -0.1063 0.265, 0.1458 -0.1063 0.296, 0.1787 -0.1024 0.3831, 0.1787 -0.1063 0.3831, 0.1666 -0.1024 0.311, 0.1842 -0.1024 0.3604, 0.1853 -0.1024 0.3645, 0.1861 -0.1024 0.3687, 0.1865 -0.1024 0.3687, 0.1872 -0.1024 0.3645, 0.2061 -0.1024 0.311, 0.1883 -0.1024 0.3604, 0.1666 -0.1063 0.311, 0.2061 -0.1063 0.311, 0.1842 -0.1063 0.3604, 0.1853 -0.1063 0.3645, 0.1861 -0.1063 0.3687, 0.1865 -0.1063 0.3687, 0.1872 -0.1063 0.3645, 0.1883 -0.1063 0.3604, 0.0624 -0.1024 0.265, 0.0303 -0.1024 0.265, 0.0624 -0.1063 0.265, 0.0303 -0.1063 0.265, 0.0303 -0.1024 0.3831, 0.0303 -0.1063 0.3831, 0.0637 -0.1024 0.3831, 0.0637 -0.1063 0.3831, 0.1254 -0.1024 0.3255, 0.1254 -0.1063 0.3255, 0.1245 -0.1063 0.3366, 0.1245 -0.1024 0.3366, 0.1214 -0.1063 0.3482, 0.1214 -0.1024 0.3482, 0.1159 -0.1063 0.3584, 0.1159 -0.1024 0.3584, 0.1075 -0.1063 0.3677, 0.1075 -0.1024 0.3677, 0.1074 -0.1063 0.3678, 0.1074 -0.1024 0.3678, 0.0945 -0.1063 0.3764, 0.0945 -0.1024 0.3764, 0.0807 -0.1063 0.3812, 0.0807 -0.1024 0.3812, 0.0771 -0.1063 0.2662, 0.0771 -0.1024 0.2662, 0.0907 -0.1063 0.2703, 0.0907 -0.1024 0.2703, 0.103 -0.1063 0.2774, 0.103 -0.1024 0.2774, 0.1127 -0.1063 0.2868, 0.1127 -0.1024 0.2868, 0.1195 -0.1063 0.2973, 0.1195 -0.1024 0.2973, 0.1237 -0.1063 0.3097, 0.1237 -0.1024 0.3097, 0.1017 -0.1024 0.3535, 0.096 -0.1024 0.3596, 0.0873 -0.1024 0.3652, 0.0776 -0.1024 0.3686, 0.0636 -0.1024 0.3701, 0.0462 -0.1024 0.3701, 0.0462 -0.1024 0.2779, 0.0629 -0.1024 0.2779, 0.0754 -0.1024 0.2791, 0.0853 -0.1024 0.2822, 0.0934 -0.1024 0.287, 0.1 -0.1024 0.2935, 0.105 -0.1024 0.3016, 0.1085 -0.1024 0.3127, 0.1096 -0.1024 0.3252, 0.1085 -0.1024 0.3369, 0.1058 -0.1024 0.3463, 0.0636 -0.1063 0.3701, 0.0462 -0.1063 0.3701, 0.0776 -0.1063 0.3686, 0.0873 -0.1063 0.3652, 0.096 -0.1063 0.3596, 0.1017 -0.1063 0.3535, 0.1058 -0.1063 0.3463, 0.1085 -0.1063 0.3369, 0.1096 -0.1063 0.3252, 0.1085 -0.1063 0.3127, 0.105 -0.1063 0.3016, 0.1 -0.1063 0.2935, 0.0934 -0.1063 0.287, 0.0853 -0.1063 0.2822, 0.0754 -0.1063 0.2791, 0.0629 -0.1063 0.2779, 0.0462 -0.1063 0.2779, 0.0073 -0.1024 0.2779, 0.0073 -0.1024 0.265, 0.0073 -0.1063 0.2779, 0.0073 -0.1063 0.265, -0.0561 -0.1024 0.265, -0.0561 -0.1063 0.265, -0.0561 -0.1024 0.3831, -0.0561 -0.1063 0.3831, 0.0044 -0.1024 0.3831, 0.0044 -0.1063 0.3831, 0.0044 -0.1024 0.3701, 0.0044 -0.1063 0.3701, -0.0402 -0.1024 0.3701, -0.0402 -0.1063 0.3701, -0.0402 -0.1024 0.3312, -0.0402 -0.1063 0.3312, 0.0015 -0.1024 0.3312, 0.0015 -0.1063 0.3312, 0.0015 -0.1024 0.3182, 0.0015 -0.1063 0.3182, -0.0402 -0.1024 0.3182, -0.0402 -0.1063 0.3182, -0.0402 -0.1024 0.2779, -0.0402 -0.1063 0.2779, -0.0791 -0.1024 0.284, -0.0791 -0.1024 0.2711, -0.0791 -0.1063 0.284, -0.0791 -0.1063 0.2711, -0.0917 -0.1024 0.2659, -0.1116 -0.1024 0.2635, -0.1116 -0.1063 0.2635, -0.1084 -0.1063 0.2636, -0.1084 -0.1024 0.2636, -0.1037 -0.1063 0.2642, -0.0917 -0.1063 0.2659, -0.167 -0.1024 0.3218, -0.167 -0.1063 0.3218, -0.1659 -0.1063 0.3081, -0.1659 -0.1024 0.3081, -0.1623 -0.1063 0.2956, -0.1623 -0.1024 0.2956, -0.156 -0.1063 0.2844, -0.156 -0.1024 0.2844, -0.1471 -0.1063 0.275, -0.1471 -0.1024 0.275, -0.1376 -0.1063 0.269, -0.1376 -0.1024 0.269, -0.1262 -0.1063 0.265, -0.1262 -0.1024 0.265, -0.1186 -0.1063 0.2642, -0.1069 -0.1024 0.3845, -0.1069 -0.1063 0.3845, -0.1188 -0.1024 0.3835, -0.1158 -0.1063 0.3838, -0.1188 -0.1063 0.3835, -0.132 -0.1063 0.3797, -0.132 -0.1024 0.3797, -0.1432 -0.1063 0.3732, -0.1432 -0.1024 0.3732, -0.1538 -0.1063 0.363, -0.1538 -0.1024 0.363, -0.1608 -0.1063 0.352, -0.1608 -0.1024 0.352, -0.1653 -0.1063 0.3386, -0.1653 -0.1024 0.3386, -0.0965 -0.1063 0.3838, -0.0928 -0.1024 0.3835, -0.0928 -0.1063 0.3835, -0.0791 -0.1024 0.3798, -0.0791 -0.1063 0.3798, -0.0791 -0.1024 0.364, -0.0791 -0.1063 0.364, -0.1068 -0.1024 0.3715, -0.1068 -0.1063 0.3715, -0.0924 -0.1063 0.3697, -0.0924 -0.1024 0.3697, -0.1512 -0.1024 0.3227, -0.1512 -0.1063 0.3227, -0.1506 -0.1063 0.3319, -0.1506 -0.1024 0.3319, -0.1474 -0.1063 0.3446, -0.1474 -0.1024 0.3446, -0.1426 -0.1063 0.3537, -0.1426 -0.1024 0.3537, -0.1354 -0.1063 0.3616, -0.1354 -0.1024 0.3616, -0.1273 -0.1063 0.367, -0.1273 -0.1024 0.367, -0.1184 -0.1063 0.3702, -0.1184 -0.1024 0.3702, -0.1095 -0.1024 0.2765, -0.1095 -0.1063 0.2765, -0.1205 -0.1063 0.2777, -0.1205 -0.1024 0.2777, -0.1291 -0.1063 0.2809, -0.1291 -0.1024 0.2809, -0.1363 -0.1063 0.2858, -0.1363 -0.1024 0.2858, -0.1419 -0.1063 0.2916, -0.1419 -0.1024 0.2916, -0.1468 -0.1063 0.2998, -0.1468 -0.1024 0.2998, -0.15 -0.1063 0.31, -0.15 -0.1024 0.31, -0.0813 -0.1063 0.2829, -0.0813 -0.1024 0.2829, -0.0938 -0.1063 0.2782, -0.0938 -0.1024 0.2782, -0.1771 -0.1024 0.2779, -0.1771 -0.1024 0.265, -0.1771 -0.1063 0.2779, -0.1771 -0.1063 0.265, -0.2369 -0.1063 0.265, -0.2376 -0.1024 0.265, -0.2376 -0.1063 0.265, -0.2376 -0.1024 0.3831, -0.2376 -0.1063 0.3831, -0.2369 -0.1063 0.3831, -0.2217 -0.1024 0.3831, -0.2217 -0.1063 0.3831, -0.2217 -0.1024 0.2779, -0.2217 -0.1063 0.2779
            ]
        }
        coordIndex [
            0,1,2,-1,2,1,3,-1,1,4,3,-1,3,4,5,-1,4,6,5,-1,5,6,7,-1,6,8,7,-1,7,8,9,-1,8,10,9,-1,9,10,11,-1,12,13,10,-1,10,13,14,-1,10,14,11,-1,13,12,15,-1,15,12,16,-1,15,16,17,-1,16,0,17,-1,17,0,2,-1,18,19,16,-1,12,10,8,-1,19,20,16,-1,16,20,21,-1,16,21,0,-1,0,21,22,-1,0,22,23,-1,16,12,18,-1,18,12,8,-1,18,8,24,-1,24,8,6,-1,23,25,0,-1,0,25,24,-1,0,24,1,-1,1,24,6,-1,1,6,4,-1,18,24,26,-1,26,24,27,-1,19,18,28,-1,28,18,26,-1,19,28,29,-1,19,29,20,-1,20,29,30,-1,20,30,21,-1,22,21,31,-1,31,21,30,-1,22,31,32,-1,22,32,23,-1,23,32,33,-1,23,33,25,-1,24,25,27,-1,27,25,33,-1,34,35,36,-1,36,35,37,-1,35,38,37,-1,37,38,39,-1,38,40,39,-1,39,40,41,-1,42,43,44,-1,42,44,45,-1,45,44,46,-1,45,46,47,-1,47,46,48,-1,47,48,49,-1,49,48,50,-1,49,50,51,-1,51,50,52,-1,51,52,53,-1,53,52,54,-1,53,54,55,-1,55,54,56,-1,55,56,57,-1,57,56,41,-1,57,41,40,-1,34,36,58,-1,34,58,59,-1,59,58,60,-1,59,60,61,-1,61,60,62,-1,61,62,63,-1,63,62,64,-1,63,64,65,-1,65,64,66,-1,65,66,67,-1,67,66,68,-1,67,68,69,-1,69,68,43,-1,69,43,42,-1,47,49,70,-1,70,49,51,-1,70,51,71,-1,71,51,53,-1,71,53,72,-1,72,53,55,-1,72,55,73,-1,73,55,57,-1,73,57,74,-1,74,57,40,-1,74,40,75,-1,75,40,38,-1,75,38,76,-1,76,38,35,-1,76,35,77,-1,77,35,34,-1,77,34,78,-1,78,34,59,-1,78,59,79,-1,79,59,61,-1,79,61,80,-1,80,61,63,-1,80,63,81,-1,81,63,65,-1,81,65,82,-1,82,65,67,-1,82,67,83,-1,83,67,69,-1,83,69,84,-1,84,69,42,-1,84,42,85,-1,85,42,45,-1,85,45,86,-1,86,45,47,-1,86,47,70,-1,74,75,87,-1,87,75,88,-1,74,87,89,-1,74,89,73,-1,73,89,90,-1,73,90,72,-1,72,90,91,-1,72,91,71,-1,71,91,92,-1,71,92,70,-1,70,92,93,-1,70,93,86,-1,86,93,94,-1,86,94,85,-1,85,94,95,-1,85,95,84,-1,84,95,96,-1,84,96,83,-1,83,96,97,-1,83,97,82,-1,82,97,98,-1,82,98,81,-1,81,98,99,-1,81,99,80,-1,80,99,100,-1,80,100,79,-1,79,100,101,-1,79,101,78,-1,78,101,102,-1,78,102,77,-1,76,77,103,-1,103,77,102,-1,75,76,88,-1,88,76,103,-1,104,105,106,-1,106,105,107,-1,105,108,107,-1,107,108,109,-1,108,110,109,-1,109,110,111,-1,110,112,111,-1,111,112,113,-1,112,114,113,-1,113,114,115,-1,114,116,115,-1,115,116,117,-1,116,118,117,-1,117,118,119,-1,118,120,119,-1,119,120,121,-1,120,122,121,-1,121,122,123,-1,122,124,123,-1,123,124,125,-1,124,126,125,-1,125,126,127,-1,126,104,127,-1,127,104,106,-1,108,105,104,-1,104,126,108,-1,108,126,124,-1,108,124,110,-1,114,112,116,-1,116,112,110,-1,116,110,118,-1,118,110,124,-1,118,124,120,-1,120,124,122,-1,128,129,130,-1,130,129,131,-1,131,129,132,-1,133,134,135,-1,133,135,136,-1,136,135,137,-1,136,137,132,-1,132,137,138,-1,132,138,131,-1,139,140,141,-1,139,141,142,-1,142,141,143,-1,142,143,144,-1,144,143,145,-1,144,145,146,-1,146,145,147,-1,146,147,148,-1,148,147,149,-1,148,149,150,-1,150,149,151,-1,150,151,152,-1,152,151,133,-1,133,151,153,-1,133,153,134,-1,154,155,156,-1,156,155,157,-1,157,158,156,-1,156,158,159,-1,156,159,160,-1,160,159,161,-1,160,161,162,-1,162,161,163,-1,162,163,164,-1,164,163,165,-1,164,165,166,-1,166,165,167,-1,166,167,168,-1,168,167,140,-1,168,140,139,-1,155,154,169,-1,169,154,170,-1,169,170,171,-1,171,170,172,-1,171,172,173,-1,172,174,173,-1,173,174,175,-1,176,177,178,-1,176,178,179,-1,179,178,175,-1,179,175,174,-1,180,181,182,-1,180,182,183,-1,183,182,184,-1,183,184,185,-1,185,184,186,-1,185,186,187,-1,187,186,188,-1,187,188,189,-1,189,188,190,-1,189,190,191,-1,191,190,192,-1,191,192,193,-1,193,192,177,-1,193,177,176,-1,194,195,196,-1,194,196,197,-1,197,196,198,-1,197,198,199,-1,199,198,200,-1,199,200,201,-1,201,200,202,-1,201,202,203,-1,203,202,204,-1,203,204,205,-1,205,204,206,-1,205,206,207,-1,207,206,181,-1,207,181,180,-1,128,130,208,-1,128,208,209,-1,209,208,210,-1,209,210,211,-1,211,210,195,-1,211,195,194,-1,197,133,194,-1,194,133,136,-1,194,136,211,-1,211,136,132,-1,211,132,209,-1,209,132,129,-1,209,129,128,-1,174,172,179,-1,179,172,170,-1,179,170,176,-1,176,170,154,-1,176,154,193,-1,193,154,156,-1,193,156,191,-1,191,156,160,-1,191,160,189,-1,189,160,162,-1,189,162,187,-1,187,162,164,-1,187,164,185,-1,185,164,166,-1,185,166,183,-1,183,166,168,-1,183,168,180,-1,180,168,139,-1,180,139,207,-1,207,139,142,-1,207,142,205,-1,205,142,144,-1,205,144,203,-1,203,144,146,-1,203,146,201,-1,201,146,148,-1,201,148,199,-1,199,148,150,-1,199,150,197,-1,197,150,152,-1,197,152,133,-1,212,213,214,-1,214,213,215,-1,215,213,216,-1,216,213,217,-1,216,217,218,-1,217,219,218,-1,218,219,220,-1,220,219,221,-1,221,219,222,-1,221,222,223,-1,222,224,223,-1,223,224,225,-1,224,212,225,-1,225,212,214,-1,222,219,224,-1,224,219,217,-1,224,217,212,-1,212,217,213,-1,
        ]
    }
}
Shape{
    appearance Appearance {
        material  Material 	{
            diffuseColor 0.8431372549019608 0.8156862745098039 0.7529411764705882
            specularColor 0.25098039215686274 0.24313725490196078 0.22745098039215686
            ambientIntensity 0.8167
            transparency 0.0
            shininess 0.5
        }
    }
    geometry IndexedFaceSet {
        ccw TRUE
        solid FALSE
        coord DEF co Coordinate {
            point [
                0.1666 -0.1063 0.311, 0.2061 -0.1063 0.311, 0.1842 -0.1063 0.3604, 0.1883 -0.1063 0.3604, 0.1853 -0.1063 0.3645, 0.1872 -0.1063 0.3645, 0.1861 -0.1063 0.3687, 0.1865 -0.1063 0.3687, 0.0462 -0.1063 0.3701, 0.0462 -0.1063 0.2779, 0.0636 -0.1063 0.3701, 0.0629 -0.1063 0.2779, 0.0754 -0.1063 0.2791, 0.1096 -0.1063 0.3252, 0.1085 -0.1063 0.3369, 0.1058 -0.1063 0.3463, 0.0776 -0.1063 0.3686, 0.0853 -0.1063 0.2822, 0.0934 -0.1063 0.287, 0.1 -0.1063 0.2935, 0.105 -0.1063 0.3016, 0.1085 -0.1063 0.3127, 0.1017 -0.1063 0.3535, 0.096 -0.1063 0.3596, 0.0873 -0.1063 0.3652
            ]
        }
        coordIndex [
            0,1,2,-1,2,1,3,-1,2,3,4,-1,4,3,5,-1,4,5,6,-1,6,5,7,-1,8,9,10,-1,10,9,11,-1,10,11,12,-1,13,14,10,-1,10,14,15,-1,10,15,16,-1,12,17,10,-1,10,17,18,-1,10,18,19,-1,19,20,10,-1,10,20,21,-1,10,21,13,-1,22,23,15,-1,15,23,24,-1,15,24,16,-1,
        ]
    }
}
Shape{
    appearance Appearance {
        material  Material 	{
            diffuseColor 0.8509803921568627 0.8509803921568627 0.8509803921568627
            specularColor 0.4235294117647059 0.4235294117647059 0.4235294117647059
            ambientIntensity 0.851
            transparency 0.0
            shininess 0.5
        }
    }
    geometry IndexedFaceSet {
        ccw TRUE
        solid FALSE
        coord DEF co Coordinate {
            point [
                -0.6339 -1.2047 0.0, -0.5512 -1.2047 0.0, -0.5512 -1.2225 0.002, -0.6339 -1.2225 0.002, -0.5512 -1.2293 0.0039, -0.6339 -1.2394 0.0081, -0.5512 -1.2394 0.0081, -0.5512 -1.2545 0.0177, -0.6339 -1.2545 0.0177, -0.5512 -1.267 0.0306, -0.6339 -1.267 0.0306, -0.5512 -1.2763 0.0459, -0.6339 -1.2763 0.0459, -0.5512 -1.2819 0.063, -0.6339 -1.2819 0.063, -0.5512 0.1496 0.8504, -0.5512 0.1496 0.8465, -0.5512 0.3031 0.8504, -0.5512 0.3277 0.8465, -0.5512 0.3207 0.8484, -0.6339 0.3031 0.8504, -0.6339 0.1496 0.8504, -0.6339 0.3207 0.8484, -0.6339 0.3373 0.8426, -0.5512 0.3373 0.8426, -0.5512 0.3522 0.8332, -0.6339 0.3522 0.8332, -0.5512 0.3647 0.8207, -0.6339 0.3647 0.8207, -0.5512 0.3741 0.8058, -0.6339 0.3741 0.8058, -0.5512 0.3799 0.7892, -0.6339 0.3799 0.7892, -0.5512 0.3819 0.7717, -0.6339 0.3819 0.7717, -0.5512 0.3819 0.0787, -0.6339 0.3819 0.0787, -0.5512 0.3819 0.122, -0.5512 0.3799 0.0612, -0.6339 0.3799 0.0612, -0.5512 0.3741 0.0446, -0.6339 0.3741 0.0446, -0.5512 0.3647 0.0296, -0.6339 0.3647 0.0296, -0.5512 0.3522 0.0172, -0.6339 0.3522 0.0172, -0.5512 0.3373 0.0078, -0.6339 0.3373 0.0078, -0.5512 0.3207 0.002, -0.6339 0.3207 0.002, -0.5512 0.3031 0.0, -0.6339 0.3031 0.0
            ]
        }
        coordIndex [
            0,1,2,-1,0,2,3,-1,3,2,4,-1,3,4,5,-1,4,6,5,-1,5,6,7,-1,5,7,8,-1,8,7,9,-1,8,9,10,-1,10,9,11,-1,10,11,12,-1,12,11,13,-1,12,13,14,-1,15,16,17,-1,17,16,18,-1,17,18,19,-1,20,21,17,-1,17,21,15,-1,20,17,19,-1,20,19,22,-1,22,19,18,-1,22,18,23,-1,18,24,23,-1,23,24,25,-1,23,25,26,-1,26,25,27,-1,26,27,28,-1,28,27,29,-1,28,29,30,-1,30,29,31,-1,30,31,32,-1,32,31,33,-1,32,33,34,-1,35,36,37,-1,37,36,34,-1,37,34,33,-1,36,35,38,-1,36,38,39,-1,39,38,40,-1,39,40,41,-1,41,40,42,-1,41,42,43,-1,43,42,44,-1,43,44,45,-1,45,44,46,-1,45,46,47,-1,47,46,48,-1,47,48,49,-1,49,48,50,-1,49,50,51,-1,
        ]
    }
}
Shape{
    appearance Appearance {
        material  Material 	{
            diffuseColor 0.8549019607843137 0.8549019607843137 0.8549019607843137
            specularColor 0.42745098039215684 0.42745098039215684 0.42745098039215684
            ambientIntensity 0.8549
            transparency 0.0
            shininess 0.5
        }
    }
    geometry IndexedFaceSet {
        ccw TRUE
        solid FALSE
        coord DEF co Coordinate {
            point [
                -0.6339 -1.2047 0.0, -0.6339 0.3031 0.0, -0.5512 -1.2047 0.0, -0.5512 0.3031 0.0
            ]
        }
        coordIndex [
            0,1,2,-1,2,1,3,-1,
        ]
    }
}
Shape{
    appearance Appearance {
        material  Material 	{
            diffuseColor 0.8509803921568627 0.8509803921568627 0.8509803921568627
            specularColor 0.4235294117647059 0.4235294117647059 0.4235294117647059
            ambientIntensity 0.851
            transparency 0.0
            shininess 0.5
        }
    }
    geometry IndexedFaceSet {
        ccw TRUE
        solid FALSE
        coord DEF co Coordinate {
            point [
                -0.6339 0.3031 0.0, -0.6339 0.1496 0.063, -0.6339 0.1496 0.8504, -0.6339 -1.2819 0.063, -0.6339 -1.2047 0.0, -0.6339 -1.2225 0.002, -0.6339 -1.267 0.0306, -0.6339 -1.2763 0.0459, -0.6339 -1.2545 0.0177, -0.6339 -1.2394 0.0081, -0.6339 0.3031 0.8504, -0.6339 0.3819 0.7717, -0.6339 0.3819 0.0787, -0.6339 0.3647 0.8207, -0.6339 0.3741 0.8058, -0.6339 0.3522 0.8332, -0.6339 0.3373 0.8426, -0.6339 0.3207 0.8484, -0.6339 0.3799 0.7892, -0.6339 0.3799 0.0612, -0.6339 0.3741 0.0446, -0.6339 0.3647 0.0296, -0.6339 0.3522 0.0172, -0.6339 0.3373 0.0078, -0.6339 0.3207 0.002, -0.5512 0.3819 0.0787, -0.5512 0.3819 0.122, -0.5512 0.1496 0.122, -0.5512 0.3031 0.0, -0.5512 0.1496 0.0039, -0.5512 -1.2047 0.0, -0.5512 -1.2293 0.0039, -0.5512 -1.2225 0.002, -0.5512 0.3207 0.002, -0.5512 0.3373 0.0078, -0.5512 0.3522 0.0172, -0.5512 0.3799 0.0612, -0.5512 0.3741 0.0446, -0.5512 0.3647 0.0296
            ]
        }
        coordIndex [
            0,1,2,-1,1,0,3,-1,3,0,4,-1,3,4,5,-1,6,7,8,-1,8,7,3,-1,8,3,9,-1,9,3,5,-1,2,10,0,-1,0,10,11,-1,0,11,12,-1,13,14,15,-1,15,14,16,-1,10,17,11,-1,11,17,16,-1,11,16,18,-1,18,16,14,-1,12,19,0,-1,0,19,20,-1,0,20,21,-1,21,22,0,-1,0,22,23,-1,0,23,24,-1,25,26,27,-1,28,29,30,-1,30,29,31,-1,30,31,32,-1,33,34,35,-1,27,29,25,-1,25,29,28,-1,25,28,36,-1,36,28,37,-1,33,35,28,-1,28,35,38,-1,28,38,37,-1,
        ]
    }
}