<?xml version="1.0" encoding="UTF-8"?>
<svg xmlns="http://www.w3.org/2000/svg" width="66.82mm" height="176.40mm" viewBox="132.446 127.681 66.817 176.402">
  <g id="feather">
    <path id="A2" fill="none" stroke="#000" stroke-width="0.5" d="M 190.227,227.207 C 190.227,208.126 192.622,175.084 183.106,158.252 C 180.703,154.002 176.346,150.199 173.088,146.570 C 169.888,143.008 166.277,138.216 161.853,136.117 C 154.256,132.512 142.591,160.952 141.188,166.581 C 140.124,170.852 140.530,176.359 140.530,180.765 C 140.530,181.160 140.530,182.345 140.530,181.950 C 140.530,216.416 141.764,252.796 153.691,285.374 C 154.711,288.161 154.699,293.507 157.732,294.896 C 167.845,299.528 172.788,291.506 176.660,283.727 C 178.760,279.507 182.308,275.765 184.136,271.099 C 188.569,259.779 190.227,240.595 190.227,228.392 C 190.227,227.997 190.227,226.812 190.227,227.207 Z"/>
    <text x="165.46" y="195.54" font-family="sans-serif" font-size="6" fill="#000" text-anchor="middle" transform="rotate(180,165.46,193.44)">A2</text>
  </g>
</svg>
